<svg width="370" height="395" viewBox="0 0 370 395" fill="none" xmlns="http://www.w3.org/2000/svg">
    <path
        d="M336.217 96.8862H261.311C243.059 96.8862 228.264 111.682 228.264 129.933V204.839C228.264 223.091 243.059 237.886 261.311 237.886H336.217C354.468 237.886 369.264 223.091 369.264 204.839V129.933C369.264 111.682 354.468 96.8862 336.217 96.8862Z"
        fill="url(#paint0_linear_985_41)" />
    <path
        d="M324.453 85.1379H249.547C231.296 85.1379 216.5 99.9335 216.5 118.185V193.091C216.5 211.342 231.296 226.138 249.547 226.138H324.453C342.704 226.138 357.5 211.342 357.5 193.091V118.185C357.5 99.9335 342.704 85.1379 324.453 85.1379Z"
        fill="url(#paint1_linear_985_41)" />
    <path
        d="M248.219 183.196V122.742C248.219 122.331 248.395 122.096 248.806 122.096C249.805 122.096 250.745 122.096 252.096 122.037C253.506 121.979 254.975 121.979 256.561 121.92C258.148 121.861 259.851 121.861 261.673 121.802C263.494 121.744 265.256 121.744 267.019 121.744C271.836 121.744 275.831 122.331 279.121 123.565C282.071 124.566 284.76 126.212 286.994 128.382C288.887 130.282 290.349 132.566 291.283 135.08C292.164 137.547 292.634 140.074 292.634 142.718C292.634 147.77 291.459 151.941 289.109 155.231C286.759 158.521 283.469 160.989 279.65 162.399C275.655 163.868 271.249 164.396 266.431 164.396C265.021 164.396 264.081 164.396 263.494 164.337C262.906 164.279 262.084 164.279 260.968 164.279V183.137C261.026 183.549 260.732 183.901 260.321 183.96H248.924C248.454 183.96 248.219 183.725 248.219 183.196ZM261.026 133.435V153.175C261.849 153.234 262.612 153.293 263.317 153.293H266.431C268.723 153.293 271.014 152.94 273.187 152.235C275.068 151.706 276.712 150.59 278.005 149.121C279.239 147.653 279.826 145.655 279.826 143.07C279.882 141.234 279.413 139.42 278.475 137.841C277.476 136.314 276.066 135.139 274.363 134.492C272.189 133.611 269.839 133.259 267.43 133.317C265.903 133.317 264.551 133.317 263.435 133.376C262.26 133.317 261.437 133.376 261.026 133.435ZM329.294 149.591C327.531 148.651 325.651 148.005 323.654 147.594C321.48 147.124 319.306 146.83 317.074 146.83C315.899 146.771 314.665 146.948 313.549 147.241C312.785 147.417 312.139 147.829 311.728 148.416C311.434 148.886 311.257 149.474 311.257 150.002C311.257 150.531 311.492 151.06 311.845 151.53C312.374 152.176 313.079 152.705 313.843 153.116C315.205 153.822 316.596 154.469 318.014 155.055C321.186 156.113 324.241 157.581 327.061 159.344C329 160.577 330.586 162.222 331.702 164.22C332.642 166.1 333.112 168.156 333.054 170.271C333.112 173.033 332.29 175.794 330.763 178.085C329.124 180.43 326.837 182.247 324.182 183.314C321.304 184.547 317.779 185.194 313.549 185.194C310.846 185.194 308.203 184.959 305.559 184.43C303.487 184.072 301.472 183.44 299.566 182.55C299.155 182.315 298.861 181.904 298.92 181.434V171.211C298.92 171.035 298.979 170.8 299.155 170.682C299.331 170.565 299.507 170.624 299.684 170.741C301.975 172.092 304.384 173.033 306.969 173.62C309.201 174.207 311.551 174.501 313.901 174.501C316.134 174.501 317.72 174.207 318.778 173.679C319.717 173.267 320.364 172.269 320.364 171.211C320.364 170.389 319.894 169.625 318.954 168.861C318.014 168.098 316.075 167.216 313.196 166.1C310.243 165.059 307.438 163.637 304.854 161.87C303.013 160.558 301.488 158.852 300.389 156.876C299.449 154.996 298.979 152.94 299.038 150.884C299.038 148.358 299.743 145.949 301.035 143.775C302.504 141.425 304.678 139.545 307.204 138.37C309.965 136.96 313.431 136.314 317.602 136.314C320.011 136.314 322.479 136.49 324.887 136.842C326.65 137.078 328.354 137.547 329.94 138.194C330.175 138.252 330.41 138.488 330.527 138.722C330.586 138.957 330.645 139.193 330.645 139.427V149.004C330.645 149.239 330.527 149.474 330.351 149.591C329.822 149.709 329.529 149.709 329.294 149.591Z"
        fill="white" />
    <path
        d="M174.326 65.1679L101.554 31.5303C83.8232 23.3343 62.8051 31.0642 54.6091 48.7954L20.9715 121.567C12.7755 139.298 20.5054 160.317 38.2366 168.512L111.008 202.15C128.74 210.346 149.758 202.616 157.954 184.885L191.591 112.113C199.787 94.382 192.057 73.3639 174.326 65.1679Z"
        fill="url(#paint2_linear_985_41)" />
    <path
        d="M168.189 48.478L95.4177 14.8404C77.6865 6.64439 56.6684 14.3742 48.4724 32.1054L14.8348 104.877C6.63881 122.608 14.3686 143.627 32.0999 151.823L104.872 185.46C122.603 193.656 143.621 185.926 151.817 168.195L185.455 95.4233C193.651 77.6921 185.921 56.6739 168.189 48.478Z"
        fill="url(#paint3_linear_985_41)" />
    <path
        d="M91.8459 112.116L70.6137 102.302L60.0758 113.71C59.7244 114.171 59.1096 114.303 58.6224 114.008L47.8918 109.048C47.2641 108.758 47.2512 108.336 47.739 107.73L90.5742 63.3162C91.009 62.8249 91.4706 62.2759 92.0152 61.6963C92.7977 60.6033 93.4919 59.4007 94.0724 58.1448C94.1475 57.8334 94.5075 57.6531 94.8195 57.7284L109.602 64.5613C110.059 64.7725 110.208 65.0491 110.133 65.3608L103.792 133.779C103.673 134.485 103.37 134.692 102.799 134.428L90.8699 128.914C90.4443 128.787 90.1764 128.317 90.2472 127.864L91.8459 112.116ZM79.2798 92.2462L93.7769 98.9473C93.9885 97.5904 94.1917 95.9523 94.3639 94.2311C94.5625 92.4526 94.8138 90.5602 95.0916 88.6104C95.3386 86.577 95.6164 84.6273 95.8634 82.5938C96.1107 80.5612 96.3623 78.6682 96.6703 76.8019C96.9524 74.9932 97.2388 73.3241 97.4728 71.7698L97.3583 71.7168C95.7101 73.9338 93.9479 76.0981 92.0148 78.1828C89.8923 80.5267 87.7171 82.9846 85.4844 85.4165C83.5021 87.7697 81.4324 90.0478 79.2798 92.2462ZM139.288 90.4051C137.378 89.5918 135.895 88.0055 135.132 86.0597C134.479 84.0259 134.664 81.8258 135.618 79.9118C136.458 77.9448 138.044 76.4614 140.021 75.7815C141.997 75.1021 144.141 75.2616 146.024 76.1322C148.25 77.1611 149.646 78.6375 150.294 80.5303C150.92 82.4988 150.753 84.6335 149.83 86.481C148.99 88.4477 147.435 90.0147 145.405 90.8086C143.459 91.5717 141.176 91.4167 139.288 90.4051ZM109.996 136.993L130.31 93.0443C130.574 92.4733 130.908 92.3502 131.421 92.5877L142.722 97.8114C143.236 98.0488 143.332 98.4402 143.095 98.9539L122.78 142.902C122.49 143.53 122.13 143.71 121.616 143.472L110.43 138.302C109.859 138.038 109.732 137.563 109.996 136.993Z"
        fill="white" />
    <path
        d="M167.724 227.368L104.84 263.828C89.5185 272.712 84.2994 292.335 93.1831 307.656L129.643 370.54C138.527 385.862 158.15 391.081 173.472 382.197L236.355 345.737C251.677 336.853 256.896 317.23 248.012 301.909L211.552 239.025C202.668 223.703 183.046 218.484 167.724 227.368Z"
        fill="url(#paint4_linear_985_41)" />
    <path
        d="M152.128 223.222L89.2446 259.682C73.9228 268.566 68.7037 288.188 77.5874 303.51L114.048 366.394C122.932 381.716 142.554 386.935 157.876 378.051L220.759 341.591C236.081 332.707 241.3 313.084 232.417 297.762L195.956 234.879C187.072 219.557 167.45 214.338 152.128 223.222Z"
        fill="url(#paint5_linear_985_41)" />
    <mask id="mask0_985_41" style="mask-type:luminance" maskUnits="userSpaceOnUse" x="97" y="236" width="116"
        height="129">
        <path d="M97.1836 272.364L158.846 236.611L212.464 329.087L150.802 364.84L97.1836 272.364Z" fill="white" />
    </mask>
    <g mask="url(#mask0_985_41)">
        <path
            d="M166.225 355.898C174.733 350.965 177.634 340.057 172.701 331.549L163.765 316.136L148.352 325.072C139.845 330.005 136.943 340.914 141.876 349.422C146.809 357.929 157.717 360.83 166.225 355.898Z"
            fill="#0ACF83" />
        <path
            d="M124.001 318.597C119.068 310.089 121.97 299.18 130.477 294.248L145.89 285.311L163.762 316.136L148.35 325.072C139.842 330.005 128.934 327.104 124.001 318.597Z"
            fill="#A259FF" />
        <path
            d="M106.124 287.772C101.191 279.264 104.093 268.356 112.6 263.423L128.013 254.487L145.886 285.312L130.473 294.248C121.965 299.181 111.057 296.28 106.124 287.772Z"
            fill="#F24E1E" />
        <path
            d="M128.016 254.485L143.428 245.548C151.936 240.615 162.844 243.517 167.777 252.024C172.71 260.532 169.809 271.441 161.301 276.374L145.888 285.31L128.016 254.485Z"
            fill="#FF7262" />
        <path
            d="M185.637 282.852C190.569 291.36 187.668 302.268 179.16 307.201C170.652 312.134 159.744 309.233 154.811 300.725C149.878 292.217 152.78 281.309 161.287 276.376C169.795 271.444 180.704 274.345 185.637 282.852Z"
            fill="#1ABCFE" />
    </g>
    <defs>
        <linearGradient id="paint0_linear_985_41" x1="360.451" y1="111.574" x2="242.951" y2="232.011"
            gradientUnits="userSpaceOnUse">
            <stop stop-color="#1A66A0" />
            <stop offset="0.47861" stop-color="#2FA4F9" />
            <stop offset="1" stop-color="#01213A" />
        </linearGradient>
        <linearGradient id="paint1_linear_985_41" x1="234.125" y1="93.9504" x2="345.75" y2="214.388"
            gradientUnits="userSpaceOnUse">
            <stop stop-color="#001E36" />
            <stop offset="1" stop-color="#31A8FF" />
        </linearGradient>
        <linearGradient id="paint2_linear_985_41" x1="191.274" y1="90.3196" x2="23.0386" y2="154.56"
            gradientUnits="userSpaceOnUse">
            <stop stop-color="#AA5900" />
            <stop offset="0.47861" stop-color="#FF9A00" />
            <stop offset="1" stop-color="#380400" />
        </linearGradient>
        <linearGradient id="paint3_linear_985_41" x1="67.9165" y1="12.519" x2="135.011" y2="182.074"
            gradientUnits="userSpaceOnUse">
            <stop stop-color="#330000" />
            <stop offset="1" stop-color="#FF9A00" />
        </linearGradient>
        <linearGradient id="paint4_linear_985_41" x1="195.217" y1="227.902" x2="155.199" y2="386.201"
            gradientUnits="userSpaceOnUse">
            <stop stop-color="#242938" />
            <stop offset="0.47861" stop-color="#4C5474" />
            <stop offset="1" stop-color="#222326" />
        </linearGradient>
        <linearGradient id="paint5_linear_985_41" x1="65.7914" y1="283.166" x2="229.416" y2="326.686"
            gradientUnits="userSpaceOnUse">
            <stop stop-color="#1B1F2A" />
            <stop offset="1" stop-color="#384056" />
        </linearGradient>
    </defs>
</svg>