<svg width="168" height="164" viewBox="0 0 168 164" fill="none" xmlns="http://www.w3.org/2000/svg">
    <path
        d="M93.1454 17.7405L37.9951 49.7171C24.5574 57.5084 19.9801 74.7178 27.7714 88.1555L59.748 143.306C67.5393 156.743 84.7488 161.321 98.1864 153.529L153.337 121.553C166.774 113.762 171.352 96.5521 163.56 83.1145L131.584 27.9642C123.792 14.5265 106.583 9.94921 93.1454 17.7405Z"
        fill="url(#paint0_linear_969_13765)" />
    <path
        d="M79.4794 14.1055L24.3291 46.0821C10.8914 53.8734 6.31412 71.0828 14.1054 84.5205L46.082 139.671C53.8733 153.108 71.0827 157.686 84.5204 149.894L139.671 117.918C153.108 110.127 157.686 92.9171 149.894 79.4795L117.918 24.3291C110.126 10.8915 92.917 6.3142 79.4794 14.1055Z"
        fill="url(#paint1_linear_969_13765)" />
    <mask id="mask0_969_13765" style="mask-type:luminance" maskUnits="userSpaceOnUse" x="31" y="25" width="102"
        height="114">
        <path d="M31.3184 57.2014L85.3981 25.8455L132.423 106.949L78.3428 138.305L31.3184 57.2014Z" fill="white" />
    </mask>
    <g mask="url(#mask0_969_13765)">
        <path
            d="M91.8682 130.462C99.3297 126.136 101.874 116.57 97.548 109.108L89.7104 95.5905L76.1933 103.428C68.7318 107.754 66.1871 117.321 70.5134 124.783C74.8396 132.244 84.4067 134.789 91.8682 130.462Z"
            fill="#0ACF83" />
        <path
            d="M54.8393 97.7483C50.513 90.2868 53.0579 80.7199 60.5195 76.3936L74.0366 68.5563L89.7112 95.5905L76.1941 103.428C68.7326 107.754 59.1655 105.21 54.8393 97.7483Z"
            fill="#A259FF" />
        <path
            d="M39.1635 70.7136C34.8373 63.2521 37.3822 53.6852 44.8437 49.359L58.3608 41.5216L74.0357 68.5562L60.5186 76.3936C53.0571 80.7198 43.4898 78.1751 39.1635 70.7136Z"
            fill="#F24E1E" />
        <path
            d="M58.3613 41.5217L71.8784 33.6844C79.3399 29.3581 88.907 31.9024 93.2333 39.3639C97.5595 46.8254 95.0148 56.3927 87.5533 60.719L74.0362 68.5563L58.3613 41.5217Z"
            fill="#FF7262" />
        <path
            d="M108.907 66.3986C113.233 73.8601 110.688 83.427 103.227 87.7533C95.7654 92.0795 86.1987 89.535 81.8725 82.0735C77.5462 74.612 80.0907 65.0453 87.5523 60.7191C95.0138 56.3928 104.581 58.9371 108.907 66.3986Z"
            fill="#1ABCFE" />
    </g>
    <defs>
        <linearGradient id="paint0_linear_969_13765" x1="117.258" y1="18.2089" x2="82.1612" y2="157.041"
            gradientUnits="userSpaceOnUse">
            <stop stop-color="#242938" />
            <stop offset="0.47861" stop-color="#4C5474" />
            <stop offset="1" stop-color="#222326" />
        </linearGradient>
        <linearGradient id="paint1_linear_969_13765" x1="3.76001" y1="66.6777" x2="147.263" y2="104.846"
            gradientUnits="userSpaceOnUse">
            <stop stop-color="#1B1F2A" />
            <stop offset="1" stop-color="#384056" />
        </linearGradient>
    </defs>
</svg>