<svg width="160" height="164" viewBox="0 0 160 164" fill="none" xmlns="http://www.w3.org/2000/svg">
    <path
        d="M138.988 52.1838L81.1214 25.4357C67.0218 18.9183 50.3085 25.065 43.7911 39.1646L17.043 97.0317C10.5257 111.131 16.6723 127.845 30.7719 134.362L88.639 161.11C102.739 167.627 119.452 161.481 125.969 147.381L152.717 89.5141C159.235 75.4144 153.088 58.7011 138.988 52.1838Z"
        fill="url(#paint0_linear_969_13798)" />
    <path
        d="M134.108 38.9109L76.2405 12.1627C62.1409 5.64539 45.4276 11.792 38.9103 25.8917L12.1621 83.7587C5.64482 97.8583 11.7915 114.572 25.8911 121.089L83.7582 147.837C97.8578 154.354 114.571 148.208 121.088 134.108L147.837 76.2411C154.354 62.1415 148.207 45.4282 134.108 38.9109Z"
        fill="url(#paint1_linear_969_13798)" />
    <path
        d="M73.4018 89.5155L56.5182 81.7113L48.1387 90.7827C47.8592 91.1493 47.3704 91.2538 46.983 91.0195L38.4501 87.0753C37.951 86.8446 37.9407 86.5094 38.3286 86.0277L72.3905 50.7102C72.7363 50.3195 73.1034 49.8829 73.5364 49.4221C74.1587 48.553 74.7107 47.5967 75.1723 46.598C75.232 46.3504 75.5183 46.207 75.7664 46.2669L87.521 51.7003C87.8844 51.8683 88.0027 52.0882 87.9434 52.336L82.9008 106.741C82.8062 107.303 82.5653 107.467 82.1117 107.257L72.6257 102.872C72.2873 102.771 72.0743 102.398 72.1305 102.038L73.4018 89.5155ZM63.4094 73.7149L74.9373 79.0435C75.1056 77.9646 75.2671 76.662 75.4041 75.2933C75.562 73.8791 75.7619 72.3742 75.9828 70.8238C76.1792 69.2069 76.4001 67.6565 76.5965 66.0395C76.7931 64.4232 76.9932 62.9179 77.2381 61.4339C77.4625 59.9956 77.6902 58.6683 77.8763 57.4324L77.7852 57.3903C76.4746 59.1532 75.0733 60.8742 73.5361 62.5319C71.8483 64.3957 70.1186 66.3502 68.3432 68.2841C66.7669 70.1552 65.1212 71.9668 63.4094 73.7149ZM111.127 72.251C109.608 71.6042 108.429 70.3428 107.822 68.7955C107.303 67.1783 107.45 65.4288 108.209 63.9068C108.877 62.3427 110.138 61.1631 111.71 60.6224C113.282 60.0822 114.986 60.209 116.484 60.9013C118.254 61.7195 119.364 62.8935 119.879 64.3986C120.377 65.9639 120.244 67.6614 119.51 69.1306C118.842 70.6945 117.605 71.9404 115.991 72.5717C114.444 73.1785 112.628 73.0554 111.127 72.251ZM87.8342 109.297L103.988 74.3496C104.198 73.8955 104.463 73.7977 104.872 73.9865L113.858 78.1403C114.266 78.3291 114.343 78.6403 114.154 79.0488L98.0005 113.996C97.7698 114.495 97.4831 114.638 97.0747 114.449L88.1793 110.338C87.7253 110.128 87.6244 109.751 87.8342 109.297Z"
        fill="white" />
    <defs>
        <linearGradient id="paint0_linear_969_13798" x1="152.465" y1="72.1841" x2="18.6867" y2="123.267"
            gradientUnits="userSpaceOnUse">
            <stop stop-color="#AA5900" />
            <stop offset="0.47861" stop-color="#FF9A00" />
            <stop offset="1" stop-color="#380400" />
        </linearGradient>
        <linearGradient id="paint1_linear_969_13798" x1="54.372" y1="10.3168" x2="107.725" y2="145.144"
            gradientUnits="userSpaceOnUse">
            <stop stop-color="#330000" />
            <stop offset="1" stop-color="#FF9A00" />
        </linearGradient>
    </defs>
</svg>