<svg width="130" height="130" viewBox="0 0 130 130" fill="none" xmlns="http://www.w3.org/2000/svg">
    <path
        d="M101.875 10H38.125C22.592 10 10 22.592 10 38.125V101.875C10 117.408 22.592 130 38.125 130H101.875C117.408 130 130 117.408 130 101.875V38.125C130 22.592 117.408 10 101.875 10Z"
        fill="url(#paint0_linear_969_13781)" />
    <path
        d="M91.875 0H28.125C12.592 0 0 12.592 0 28.125V91.875C0 107.408 12.592 120 28.125 120H91.875C107.408 120 120 107.408 120 91.875V28.125C120 12.592 107.408 0 91.875 0Z"
        fill="url(#paint1_linear_969_13781)" />
    <path
        d="M27.002 83.4558V32.0058C27.002 31.6557 27.152 31.456 27.5021 31.456C28.352 31.456 29.1521 31.456 30.302 31.4058C31.502 31.3557 32.7521 31.3557 34.1021 31.306C35.4521 31.2558 36.902 31.2558 38.4521 31.2057C40.0018 31.156 41.5018 31.156 43.0018 31.156C47.102 31.156 50.5018 31.6557 53.3021 32.7057C55.8121 33.5581 58.1007 34.9587 60.002 36.8058C61.6131 38.4223 62.8579 40.3662 63.6521 42.5058C64.4021 44.6058 64.802 46.756 64.802 49.006C64.802 53.3058 63.8021 56.8557 61.8019 59.656C59.8018 62.4558 57.002 64.5558 53.7521 65.7558C50.3518 67.006 46.6018 67.456 42.5021 67.456C41.3021 67.456 40.502 67.456 40.0018 67.4058C39.5021 67.3557 38.8018 67.3557 37.8521 67.3557V83.4057C37.9018 83.7558 37.652 84.0558 37.3018 84.106H27.602C27.2021 84.106 27.002 83.9058 27.002 83.4558ZM37.9018 41.1057V57.9057C38.6021 57.9558 39.2518 58.006 39.8518 58.006H42.5021C44.4521 58.006 46.4021 57.706 48.2518 57.106C49.8521 56.656 51.2518 55.7058 52.352 54.4557C53.402 53.206 53.9021 51.5058 53.9021 49.306C53.9491 47.7434 53.5501 46.1998 52.7518 44.8557C51.902 43.5558 50.702 42.556 49.2521 42.0057C47.402 41.2557 45.4018 40.9557 43.352 41.0058C42.0521 41.0058 40.9018 41.0058 39.9521 41.056C38.9518 41.0058 38.252 41.056 37.9018 41.1057ZM96.002 54.856C94.502 54.0558 92.9021 53.506 91.2019 53.1558C89.3518 52.756 87.5021 52.5057 85.6018 52.5057C84.602 52.456 83.5519 52.606 82.6018 52.8558C81.9521 53.0058 81.4018 53.356 81.0521 53.8557C80.8018 54.256 80.6518 54.7557 80.6518 55.2057C80.6518 55.6557 80.8519 56.1057 81.1519 56.506C81.6019 57.0558 82.2019 57.5058 82.8521 57.856C84.0113 58.4564 85.1957 59.0069 86.402 59.506C89.102 60.406 91.7021 61.6557 94.1021 63.1557C95.7521 64.2057 97.1021 65.6059 98.0518 67.306C98.8519 68.9058 99.2518 70.6557 99.2021 72.4557C99.2518 74.806 98.5519 77.1558 97.2521 79.1058C95.8574 81.1018 93.9114 82.6481 91.652 83.5557C89.2018 84.6057 86.2018 85.156 82.6018 85.156C80.3021 85.156 78.0521 84.9558 75.8021 84.5058C74.0386 84.2013 72.3236 83.6632 70.7021 82.906C70.3519 82.7058 70.1021 82.3557 70.1518 81.9558V73.2558C70.1518 73.1058 70.202 72.9057 70.352 72.8058C70.502 72.706 70.6519 72.7557 70.8019 72.856C72.7519 74.0058 74.8018 74.806 77.0021 75.3057C78.902 75.8058 80.9021 76.0557 82.9018 76.0557C84.8021 76.0557 86.1521 75.8058 87.0521 75.3558C87.8518 75.0057 88.4021 74.1558 88.4021 73.2558C88.4021 72.556 88.0018 71.9058 87.2021 71.2557C86.402 70.606 84.7519 69.856 82.3018 68.9058C79.7885 68.0202 77.4017 66.81 75.2021 65.3059C73.6353 64.1891 72.3371 62.7372 71.402 61.0557C70.6018 59.4558 70.202 57.706 70.2521 55.9557C70.2521 53.806 70.8521 51.7557 71.9518 49.906C73.202 47.9058 75.0521 46.306 77.2018 45.3057C79.5521 44.1057 82.5019 43.5558 86.0518 43.5558C88.1021 43.5558 90.2021 43.7058 92.252 44.0058C93.752 44.206 95.2018 44.6058 96.5518 45.1557C96.752 45.2058 96.9521 45.406 97.0519 45.6057C97.1021 45.8058 97.1518 46.006 97.1518 46.2057V54.3558C97.1518 54.556 97.0519 54.7557 96.9019 54.856C96.452 54.9558 96.2021 54.9558 96.002 54.856Z"
        fill="white" />
    <defs>
        <linearGradient id="paint0_linear_969_13781" x1="122.5" y1="22.5" x2="22.5" y2="125"
            gradientUnits="userSpaceOnUse">
            <stop stop-color="#1A66A0" />
            <stop offset="0.47861" stop-color="#2FA4F9" />
            <stop offset="1" stop-color="#01213A" />
        </linearGradient>
        <linearGradient id="paint1_linear_969_13781" x1="15" y1="7.5" x2="110" y2="110" gradientUnits="userSpaceOnUse">
            <stop stop-color="#001E36" />
            <stop offset="1" stop-color="#31A8FF" />
        </linearGradient>
    </defs>
</svg>