<svg xmlns="http://www.w3.org/2000/svg" width="50" height="50" viewBox="0 0 50 50" fill="none">
    <path
        d="M24.9994 4.16663C22.2635 4.16663 19.5544 4.7055 17.0268 5.75247C14.4992 6.79944 12.2025 8.33401 10.268 10.2686C6.36095 14.1756 4.16602 19.4746 4.16602 25C4.16602 34.2083 10.1452 42.0208 18.416 44.7916C19.4577 44.9583 19.791 44.3125 19.791 43.75V40.2291C14.0202 41.4791 12.791 37.4375 12.791 37.4375C11.8327 35.0208 10.4785 34.375 10.4785 34.375C8.58268 33.0833 10.6243 33.125 10.6243 33.125C12.7077 33.2708 13.8118 35.2708 13.8118 35.2708C15.6244 38.4375 18.6868 37.5 19.8744 37C20.0619 35.6458 20.6035 34.7291 21.1868 34.2083C16.5618 33.6875 11.7077 31.8958 11.7077 23.9583C11.7077 21.6458 12.4993 19.7916 13.8535 18.3125C13.6452 17.7916 12.916 15.625 14.0618 12.8125C14.0618 12.8125 15.8118 12.25 19.791 14.9375C21.4368 14.4791 23.2285 14.25 24.9994 14.25C26.7702 14.25 28.5619 14.4791 30.2077 14.9375C34.1869 12.25 35.9369 12.8125 35.9369 12.8125C37.0827 15.625 36.3535 17.7916 36.1452 18.3125C37.4994 19.7916 38.291 21.6458 38.291 23.9583C38.291 31.9166 33.416 33.6666 28.7702 34.1875C29.5202 34.8333 30.2077 36.1041 30.2077 38.0416V43.75C30.2077 44.3125 30.541 44.9791 31.6035 44.7916C39.8744 42 45.8327 34.2083 45.8327 25C45.8327 22.2641 45.2938 19.555 44.2468 17.0274C43.1999 14.4998 41.6653 12.2031 39.7307 10.2686C37.7962 8.33401 35.4995 6.79944 32.9719 5.75247C30.4443 4.7055 27.7352 4.16663 24.9994 4.16663Z"
        fill="white" />
</svg>