<svg width="22" height="32" viewBox="0 0 22 32" fill="none" xmlns="http://www.w3.org/2000/svg">
    <g clip-path="url(#clip0_937_21)">
        <path
            d="M5.33724 32C8.28124 32 10.6706 29.6107 10.6706 26.6667V21.3334H5.33724C2.39324 21.3334 0.00390625 23.7227 0.00390625 26.6667C0.00390625 29.6107 2.39324 32 5.33724 32Z"
            fill="#0ACF83" />
        <path
            d="M0.00390625 16C0.00390625 13.056 2.39324 10.6666 5.33724 10.6666H10.6706V21.3333H5.33724C2.39324 21.3333 0.00390625 18.944 0.00390625 16Z"
            fill="#A259FF" />
        <path
            d="M0.00390625 5.33333C0.00390625 2.38933 2.39324 0 5.33724 0H10.6706V10.6667H5.33724C2.39324 10.6667 0.00390625 8.27733 0.00390625 5.33333Z"
            fill="#F24E1E" />
        <path
            d="M10.6699 0H16.0033C18.9473 0 21.3366 2.38933 21.3366 5.33333C21.3366 8.27733 18.9473 10.6667 16.0033 10.6667H10.6699V0Z"
            fill="#FF7262" />
        <path
            d="M21.3366 16C21.3366 18.944 18.9473 21.3333 16.0033 21.3333C13.0593 21.3333 10.6699 18.944 10.6699 16C10.6699 13.056 13.0593 10.6666 16.0033 10.6666C18.9473 10.6666 21.3366 13.056 21.3366 16Z"
            fill="#1ABCFE" />
    </g>
    <defs>
        <clipPath id="clip0_937_21">
            <rect width="21.34" height="32" fill="white" />
        </clipPath>
    </defs>
</svg>