<svg width="33" height="32" viewBox="0 0 33 32" fill="none" xmlns="http://www.w3.org/2000/svg">
    <g clip-path="url(#clip0_937_27)">
        <path
            d="M27.33 0H5.44195C2.43752 0 0.00195312 2.43557 0.00195312 5.44V26.5088C0.00195312 29.5132 2.43752 31.9488 5.44195 31.9488H27.33C30.3344 31.9488 32.77 29.5132 32.77 26.5088V5.44C32.77 2.43557 30.3344 0 27.33 0Z"
            fill="#470137" />
        <path
            d="M17.2268 8.40192L13.1381 15.1505L17.5125 22.3165C17.5407 22.3667 17.5485 22.4256 17.5345 22.4814C17.5277 22.5052 17.5131 22.5111 17.4907 22.512L17.4659 22.5116L17.4357 22.5108C17.4193 22.5108 17.401 22.5116 17.3807 22.5149H14.2267L14.1648 22.5139C13.9948 22.5094 13.8723 22.4851 13.7977 22.3604C13.5059 21.7919 13.2127 21.2241 12.9183 20.6569C12.655 20.151 12.3844 19.6489 12.1068 19.1507L11.9842 18.9313C11.6521 18.3412 11.326 17.7476 11.006 17.1508H10.984C10.6884 17.7414 10.3843 18.3276 10.0717 18.9093C9.75646 19.4956 9.44504 20.0782 9.13745 20.6569C8.82969 21.236 8.51461 21.8113 8.1923 22.3825C8.14046 22.4989 8.05432 22.5233 7.93438 22.5272L7.88446 22.528H4.87301L4.85995 22.5284L4.81694 22.5322C4.79301 22.5336 4.77867 22.5285 4.77406 22.4924C4.7658 22.4388 4.77756 22.384 4.80709 22.3386L9.04952 15.3702L4.91691 8.38016C4.87301 8.32179 4.86571 8.27417 4.89489 8.23731C4.91112 8.21853 4.93148 8.20378 4.95439 8.19423C4.97729 8.18468 5.0021 8.18058 5.02686 8.18227H8.12625C8.19384 8.17857 8.26142 8.18985 8.32414 8.21529C8.37662 8.24512 8.42181 8.28646 8.45598 8.33625C8.71979 8.92249 9.01291 9.50873 9.33534 10.0947C9.65527 10.677 9.98135 11.2559 10.3135 11.8313C10.6406 12.3978 10.9449 12.9771 11.2258 13.5679H11.2478C11.5356 12.9772 11.8324 12.391 12.138 11.8094C12.4382 11.2379 12.746 10.6625 13.0612 10.0837C13.3723 9.51232 13.6764 8.93713 13.9734 8.35827C13.9903 8.304 14.0205 8.25485 14.0614 8.21529C14.1157 8.18781 14.1767 8.17635 14.2372 8.18227H17.1168C17.1433 8.17567 17.1712 8.17785 17.1964 8.18847C17.2215 8.19909 17.2425 8.21759 17.2562 8.24118C17.2699 8.26476 17.2756 8.29217 17.2724 8.31926C17.2692 8.34636 17.2573 8.37168 17.2384 8.39142L17.2268 8.40192ZM23.687 22.7985L23.5354 22.8001C22.5236 22.8155 21.5211 22.6053 20.6007 22.1847C19.7434 21.7879 19.0267 21.1402 18.5455 20.3272C18.0602 19.5213 17.8111 18.517 17.7986 17.3147L17.7981 17.2168C17.7898 16.2079 18.0477 15.2146 18.5456 14.3372C19.0439 13.4686 19.7704 12.753 20.6463 12.2679L20.7217 12.2269C21.674 11.6993 22.8245 11.4355 24.1728 11.4355L24.2317 11.4362L24.2991 11.4383L24.3746 11.4417L24.4585 11.4465L24.5996 11.4565L24.7593 11.4693L24.8762 11.4796V7.14905C24.8762 7.04665 24.9202 6.9952 25.008 6.9952H27.7778C27.7957 6.99263 27.814 6.99427 27.8312 6.99999C27.8483 7.0057 27.8639 7.01534 27.8767 7.02813C27.8895 7.04093 27.8992 7.05653 27.9049 7.0737C27.9106 7.09086 27.9122 7.10913 27.9097 7.12704V20.1184C27.9097 20.3365 27.9181 20.5715 27.935 20.8229L27.976 21.3932L27.9977 21.723C28.0004 21.7687 27.9893 21.8141 27.9658 21.8534C27.9422 21.8926 27.9074 21.9238 27.8658 21.9429C27.1512 22.2409 26.407 22.4619 25.6456 22.6022C24.9993 22.7215 24.3441 22.7872 23.687 22.7985ZM24.8762 20.0744V14.0733C24.7574 14.0412 24.6361 14.0191 24.5136 14.0074C24.3638 13.9924 24.2134 13.985 24.0629 13.9854C23.5295 13.9801 23.0023 14.1006 22.5242 14.3372C22.0585 14.5686 21.6608 14.9171 21.3702 15.3484C21.08 15.7728 20.9298 16.327 20.92 17.0111L20.9195 17.0849C20.9088 17.5641 20.987 18.041 21.1503 18.4916C21.2831 18.8548 21.4932 19.1848 21.7659 19.4589C22.0269 19.7111 22.343 19.8992 22.6891 20.0084C23.0547 20.1268 23.4368 20.1862 23.8211 20.1844C24.0262 20.1844 24.2166 20.177 24.3926 20.1623C24.533 20.1517 24.6721 20.1286 24.8084 20.0932L24.8762 20.0744Z"
            fill="#FF61F6" />
    </g>
    <defs>
        <clipPath id="clip0_937_27">
            <rect width="32.77" height="32" fill="white" />
        </clipPath>
    </defs>
</svg>