<svg width="22" height="32" viewBox="0 0 22 32" fill="none" xmlns="http://www.w3.org/2000/svg">
    <g clip-path="url(#clip0_953_50)">
        <path
            d="M9.67057 26.6667C9.67057 29.0584 7.72895 31 5.33724 31C2.94552 31 1.00391 29.0584 1.00391 26.6667C1.00391 24.275 2.94552 22.3334 5.33724 22.3334H9.67057V26.6667Z"
            stroke="white" stroke-width="2" />
        <path
            d="M1.00391 16C1.00391 13.6082 2.94552 11.6666 5.33724 11.6666H9.67057V20.3333H5.33724C2.94552 20.3333 1.00391 18.3917 1.00391 16Z"
            stroke="white" stroke-width="2" />
        <path
            d="M1.00391 5.33333C1.00391 2.94162 2.94552 1 5.33724 1H9.67057V9.66667H5.33724C2.94552 9.66667 1.00391 7.72505 1.00391 5.33333Z"
            stroke="white" stroke-width="2" />
        <path
            d="M11.6699 1H16.0033C18.395 1 20.3366 2.94162 20.3366 5.33333C20.3366 7.72505 18.395 9.66667 16.0033 9.66667H11.6699V1Z"
            stroke="white" stroke-width="2" />
        <path
            d="M20.3366 16C20.3366 18.3917 18.395 20.3333 16.0033 20.3333C13.6115 20.3333 11.6699 18.3917 11.6699 16C11.6699 13.6082 13.6115 11.6666 16.0033 11.6666C18.395 11.6666 20.3366 13.6082 20.3366 16Z"
            stroke="white" stroke-width="2" />
    </g>
    <defs>
        <clipPath id="clip0_953_50">
            <rect width="21.34" height="32" fill="white" />
        </clipPath>
    </defs>
</svg>