<svg width="24" height="40" viewBox="0 0 24 40" fill="none" xmlns="http://www.w3.org/2000/svg">
    <path
        d="M2.77883 1.47691L1.47216 2.81647C1.17569 3.12041 1 3.54816 1 3.98718L1 13.2966C1 13.7356 1.16471 14.1521 1.47216 14.4673L2.77883 15.8068C3.27294 16.3134 4.01961 16.4372 4.63451 16.1108L19.2055 8.64749L4.63451 1.17298C4.00863 0.857789 3.26196 0.981613 2.77883 1.47691Z"
        fill="#5F9DF7" />
    <path
        d="M1 37.6631C1 38.8901 2.26275 39.6894 3.32785 39.1378L3.60236 38.9914L4.76628 38.3948C5.3153 38.1134 5.65569 37.5393 5.65569 36.9202L5.65569 25.6184C5.65569 24.9992 5.99608 24.4251 6.5451 24.1437L20.9294 16.7705C21.4785 16.4891 21.8188 15.915 21.8188 15.2959L21.8188 13.6524C21.8188 12.4254 20.5561 11.6262 19.491 12.1777L5.65569 19.2695L1.88941 21.1944C1.34039 21.4759 1 22.05 1 22.6691L1 26.9917L1 37.6631Z"
        fill="#FF731D" />
    <path
        d="M18.5459 37.9294L12.4347 25.8585C12.1919 25.3791 12.3715 24.7936 12.8412 24.5327L15.568 23.0178C16.0728 22.7373 16.7095 22.9415 16.9571 23.4633L23.1387 36.4909C23.6903 37.556 22.891 38.8188 21.664 38.8188L20.0205 38.8188C19.4014 38.8188 18.8273 38.4784 18.5459 37.9294Z"
        fill="#5F9DF7" />
</svg>