<svg width="32" height="32" viewBox="0 0 32 32" fill="none" xmlns="http://www.w3.org/2000/svg">
    <g clip-path="url(#clip0_937_70)">
        <path
            d="M24.5 0H7.5C3.35786 0 0 3.35786 0 7.5V24.5C0 28.6421 3.35786 32 7.5 32H24.5C28.6421 32 32 28.6421 32 24.5V7.5C32 3.35786 28.6421 0 24.5 0Z"
            fill="#F0DB4F" />
        <path
            d="M8.41419 26.7415L10.8629 25.2595C11.3354 26.0972 11.7652 26.8059 12.7961 26.8059C13.7842 26.8059 14.4072 26.4194 14.4072 24.9159V14.6912H17.4144V24.9584C17.4144 28.073 15.5887 29.4908 12.9249 29.4908C10.5193 29.4908 9.12294 28.2449 8.41406 26.7413M19.0478 26.4193L21.4963 25.0017C22.1409 26.0543 22.9787 26.8275 24.4607 26.8275C25.7068 26.8275 26.5013 26.2045 26.5013 25.3453C26.5013 24.3143 25.6851 23.949 24.3103 23.3478L23.5587 23.0254C21.3891 22.1019 19.9498 20.9419 19.9498 18.4932C19.9498 16.2377 21.6683 14.5192 24.3534 14.5192C26.2652 14.5192 27.6399 15.1852 28.6279 16.925L26.2866 18.4287C25.7709 17.505 25.2127 17.1399 24.3534 17.1399C23.4727 17.1399 22.9142 17.6984 22.9142 18.4287C22.9142 19.3308 23.4727 19.696 24.7614 20.2547L25.5132 20.5768C28.0693 21.6724 29.5086 22.7892 29.5086 25.3023C29.5086 28.009 27.3821 29.491 24.5252 29.491C21.7328 29.491 19.9284 28.1593 19.0478 26.4193Z"
            fill="#323330" />
    </g>
    <defs>
        <clipPath id="clip0_937_70">
            <rect width="32" height="32" fill="white" />
        </clipPath>
    </defs>
</svg>