<svg width="32" height="32" viewBox="0 0 32 32" fill="none" xmlns="http://www.w3.org/2000/svg">
    <path
        d="M28.85 7.67505L16.775 0.725049C16.575 0.600049 16.3 0.550049 16 0.550049C15.7 0.550049 15.425 0.625049 15.225 0.725049L3.225 7.70005C2.8 7.95005 2.5 8.57505 2.5 9.05005V22.975C2.5 23.25 2.55 23.575 2.75 23.85L29.45 8.35005C29.3 8.05005 29.075 7.82505 28.85 7.67505Z"
        fill="#659AD3" />
    <path
        d="M2.67578 23.825C2.80078 24.025 2.97578 24.2 3.15078 24.3L15.2008 31.275C15.4008 31.4 15.6758 31.45 15.9758 31.45C16.2758 31.45 16.5508 31.375 16.7508 31.275L28.7508 24.3C29.1758 24.05 29.4758 23.425 29.4758 22.95V9.02495C29.4758 8.79995 29.4508 8.54995 29.3258 8.32495L2.67578 23.825Z"
        fill="#03599C" />
    <path
        d="M21.325 19.025C20.275 20.875 18.275 22.125 16 22.125C12.625 22.125 9.875 19.375 9.875 16C9.875 12.625 12.625 9.875 16 9.875C18.275 9.875 20.275 11.125 21.325 13L24.575 11.125C22.875 8.15 19.675 6.125 16 6.125C10.55 6.125 6.125 10.55 6.125 16C6.125 21.45 10.55 25.875 16 25.875C19.65 25.875 22.85 23.875 24.55 20.925L21.325 19.025Z"
        fill="white" />
</svg>