<svg width="32" height="32" viewBox="0 0 32 32" fill="none" xmlns="http://www.w3.org/2000/svg">
<path d="M15.9993 2.66663C14.2484 2.66663 12.5146 3.0115 10.8969 3.68157C9.27923 4.35163 7.80937 5.33375 6.57126 6.57187C4.07077 9.07235 2.66602 12.4637 2.66602 16C2.66602 21.8933 6.49268 26.8933 11.786 28.6666C12.4527 28.7733 12.666 28.36 12.666 28V25.7466C8.97268 26.5466 8.18602 23.96 8.18602 23.96C7.57268 22.4133 6.70602 22 6.70602 22C5.49268 21.1733 6.79935 21.2 6.79935 21.2C8.13268 21.2933 8.83935 22.5733 8.83935 22.5733C9.99935 24.6 11.9593 24 12.7193 23.68C12.8393 22.8133 13.186 22.2266 13.5593 21.8933C10.5993 21.56 7.49268 20.4133 7.49268 15.3333C7.49268 13.8533 7.99935 12.6666 8.86602 11.72C8.73268 11.3866 8.26602 9.99996 8.99935 8.19996C8.99935 8.19996 10.1193 7.83996 12.666 9.55996C13.7193 9.26663 14.866 9.11996 15.9993 9.11996C17.1327 9.11996 18.2793 9.26663 19.3327 9.55996C21.8793 7.83996 22.9993 8.19996 22.9993 8.19996C23.7327 9.99996 23.266 11.3866 23.1327 11.72C23.9994 12.6666 24.506 13.8533 24.506 15.3333C24.506 20.4266 21.386 21.5466 18.4127 21.88C18.8927 22.2933 19.3327 23.1066 19.3327 24.3466V28C19.3327 28.36 19.546 28.7866 20.226 28.6666C25.5193 26.88 29.3327 21.8933 29.3327 16C29.3327 14.249 28.9878 12.5152 28.3177 10.8975C27.6477 9.27984 26.6656 7.80998 25.4274 6.57187C24.1893 5.33375 22.7195 4.35163 21.1018 3.68157C19.4841 3.0115 17.7503 2.66663 15.9993 2.66663Z" fill="#420098"/>
</svg>
