<svg width="32" height="32" viewBox="0 0 32 32" fill="none" xmlns="http://www.w3.org/2000/svg">
    <path
        d="M15.9529 0.25647L1.13867 5.46997L3.47942 24.8792L15.9687 31.7435L28.5222 24.7865L30.8622 5.37772L15.9529 0.25647Z"
        fill="#B3B3B3" />
    <path d="M29.384 6.49948L15.918 1.90723V30.1035L27.2032 23.8577L29.384 6.49948Z" fill="#A6120D" />
    <path d="M2.80078 6.58224L4.80728 23.9407L15.9183 30.1035V1.90674L2.80078 6.58224Z" fill="#DD1B16" />
    <path
        d="M19.6241 16.9175L15.9173 18.651H12.0103L10.1736 23.2445L6.75781 23.308L15.9173 2.93103L19.6241 16.9175ZM19.2656 16.0448L15.9418 9.46453L13.2153 15.9315H15.9171L19.2656 16.0448Z"
        fill="#F2F2F2" />
    <path
        d="M15.918 2.93103L15.9425 9.46453L19.0362 15.9365H15.9247L15.918 18.6468L20.2202 18.651L22.2307 23.3085L25.4992 23.369L15.918 2.93103Z"
        fill="#B3B3B3" />
</svg>