<svg width="32" height="32" viewBox="0 0 32 32" fill="none" xmlns="http://www.w3.org/2000/svg">
<g clip-path="url(#clip0_940_21)">
<path d="M24.5 0H7.5C3.35786 0 0 3.35786 0 7.5V24.5C0 28.6421 3.35786 32 7.5 32H24.5C28.6421 32 32 28.6421 32 24.5V7.5C32 3.35786 28.6421 0 24.5 0Z" fill="#007ACC"/>
<path d="M7.07653 16.1062L7.06641 17.4167H11.2314V29.2515H14.1777V17.4167H18.3427V16.1315C18.3427 15.4204 18.3275 14.8262 18.3072 14.8109C18.2919 14.7907 15.7573 14.7804 12.6843 14.7855L7.09191 14.8008L7.07653 16.1062ZM25.821 14.7635C26.6337 14.9668 27.2534 15.3274 27.8223 15.9165C28.1169 16.2315 28.5537 16.8055 28.5893 16.9427C28.5994 16.9833 27.2077 17.9179 26.3645 18.441C26.334 18.4614 26.212 18.3293 26.0749 18.1262C25.6635 17.5268 25.2318 17.2677 24.5714 17.222C23.6013 17.1559 22.9765 17.6639 22.9817 18.5122C22.9817 18.761 23.0172 18.9083 23.1188 19.1115C23.332 19.5534 23.7283 19.8175 24.9728 20.3559C27.2635 21.3414 28.2438 21.9915 28.8534 22.9159C29.534 23.947 29.6864 25.5928 29.2242 26.8169C28.7163 28.1477 27.4565 29.0518 25.6838 29.3515C25.1353 29.448 23.8349 29.4328 23.2458 29.3262C21.9607 29.0975 20.7417 28.4627 19.9899 27.6297C19.6953 27.3045 19.1213 26.4563 19.1569 26.3953C19.172 26.375 19.3042 26.2938 19.4514 26.2074C19.5937 26.1262 20.1322 25.8163 20.64 25.5217L21.5594 24.9883L21.7524 25.2728C22.0217 25.6842 22.6108 26.248 22.9664 26.4359C23.9873 26.9744 25.3893 26.8982 26.08 26.2785C26.3747 26.0093 26.4965 25.7299 26.4965 25.3185C26.4965 24.9477 26.4508 24.7852 26.2578 24.5058C26.0089 24.1503 25.501 23.8505 24.0584 23.2258C22.4077 22.5147 21.6965 22.0728 21.0464 21.3718C20.6705 20.9655 20.3149 20.3153 20.1677 19.7718C20.0458 19.3198 20.0153 18.187 20.1118 17.7299C20.452 16.135 21.6559 15.0227 23.393 14.6924C23.9569 14.5858 25.2673 14.6264 25.821 14.7635Z" fill="white"/>
</g>
<defs>
<clipPath id="clip0_940_21">
<rect width="32" height="32" fill="white"/>
</clipPath>
</defs>
</svg>
