<svg width="33" height="32" viewBox="0 0 33 32" fill="none" xmlns="http://www.w3.org/2000/svg">
    <g clip-path="url(#clip0_937_77)">
        <path
            d="M15.9281 0.0090332C7.79227 0.0090332 8.30025 3.53719 8.30025 3.53719L8.30929 7.19247H16.0731V8.28988H5.22562C5.22562 8.28988 0.0195312 7.69945 0.0195312 15.9084C0.0195312 24.1176 4.56353 23.8264 4.56353 23.8264H7.27537V20.0171C7.27537 20.0171 7.12918 15.4731 11.7468 15.4731H19.4472C19.4472 15.4731 23.7734 15.543 23.7734 11.2919V4.2629C23.7734 4.2629 24.4305 0.0090332 15.9281 0.0090332ZM11.6471 2.46714C11.8305 2.46697 12.0122 2.50298 12.1818 2.57312C12.3513 2.64325 12.5053 2.74612 12.6351 2.87585C12.7648 3.00558 12.8677 3.15962 12.9378 3.32915C13.0079 3.49868 13.0439 3.68038 13.0438 3.86384C13.0439 4.04731 13.0079 4.229 12.9378 4.39853C12.8677 4.56806 12.7648 4.7221 12.6351 4.85183C12.5053 4.98156 12.3513 5.08443 12.1818 5.15457C12.0122 5.2247 11.8305 5.26071 11.6471 5.26055C11.4636 5.26071 11.2819 5.2247 11.1124 5.15457C10.9429 5.08443 10.7888 4.98156 10.6591 4.85183C10.5294 4.7221 10.4265 4.56806 10.3564 4.39853C10.2862 4.229 10.2502 4.04731 10.2504 3.86384C10.2502 3.68038 10.2862 3.49868 10.3564 3.32915C10.4265 3.15962 10.5294 3.00558 10.6591 2.87585C10.7888 2.74612 10.9429 2.64325 11.1124 2.57312C11.2819 2.50298 11.4636 2.46697 11.6471 2.46714Z"
            fill="url(#paint0_linear_937_77)" />
        <path
            d="M16.16 31.8903C24.2958 31.8903 23.7878 28.3622 23.7878 28.3622L23.7788 24.707H16.0148V23.6096H26.8623C26.8623 23.6096 32.0684 24.2001 32.0684 15.9909C32.0684 7.7818 27.5244 8.07293 27.5244 8.07293H24.8126V11.8822C24.8126 11.8822 24.9588 16.4262 20.3411 16.4262H12.6408C12.6408 16.4262 8.3145 16.3563 8.3145 20.6075V27.6366C8.3145 27.6366 7.65756 31.8903 16.1599 31.8903M20.4409 29.4325C20.2574 29.4327 20.0757 29.3966 19.9062 29.3265C19.7367 29.2564 19.5826 29.1535 19.4529 29.0238C19.3232 28.894 19.2203 28.74 19.1501 28.5705C19.08 28.4009 19.044 28.2193 19.0442 28.0358C19.044 27.8523 19.08 27.6706 19.1501 27.5011C19.2202 27.3315 19.3231 27.1775 19.4528 27.0477C19.5826 26.918 19.7366 26.8151 19.9062 26.745C20.0757 26.6748 20.2574 26.6388 20.4409 26.639C20.6243 26.6388 20.806 26.6748 20.9756 26.7449C21.1451 26.8151 21.2991 26.9179 21.4289 27.0477C21.5586 27.1774 21.6615 27.3314 21.7316 27.501C21.8017 27.6705 21.8377 27.8522 21.8376 28.0357C21.8377 28.2191 21.8017 28.4008 21.7316 28.5704C21.6615 28.7399 21.5586 28.8939 21.4289 29.0236C21.2991 29.1534 21.1451 29.2563 20.9756 29.3264C20.806 29.3965 20.6243 29.4327 20.4409 29.4325Z"
            fill="url(#paint1_linear_937_77)" />
    </g>
    <defs>
        <linearGradient id="paint0_linear_937_77" x1="307.999" y1="286.762" x2="1896.2" y2="1859.12"
            gradientUnits="userSpaceOnUse">
            <stop stop-color="#387EB8" />
            <stop offset="1" stop-color="#366994" />
        </linearGradient>
        <linearGradient id="paint1_linear_937_77" x1="462.893" y1="498.236" x2="2168.44" y2="2110.54"
            gradientUnits="userSpaceOnUse">
            <stop stop-color="#FFE052" />
            <stop offset="1" stop-color="#FFC331" />
        </linearGradient>
        <clipPath id="clip0_937_77">
            <rect width="32.13" height="32" fill="white" />
        </clipPath>
    </defs>
</svg>