<svg width="32" height="32" viewBox="0 0 32 32" fill="none" xmlns="http://www.w3.org/2000/svg">
<g clip-path="url(#clip0_940_115)">
<path d="M24.5 0H7.5C3.35786 0 0 3.35786 0 7.5V24.5C0 28.6421 3.35786 32 7.5 32H24.5C28.6421 32 32 28.6421 32 24.5V7.5C32 3.35786 28.6421 0 24.5 0Z" fill="#F03C2E"/>
<mask id="mask0_940_115" style="mask-type:luminance" maskUnits="userSpaceOnUse" x="3" y="3" width="26" height="26">
<path d="M3.5 3.5H28.5V28.5H3.5V3.5Z" fill="white"/>
</mask>
<g mask="url(#mask0_940_115)">
<path d="M28.0289 14.8867L17.1141 3.97184C16.889 3.74653 16.6022 3.59309 16.2899 3.53094C15.9776 3.46879 15.6538 3.50073 15.3597 3.62271C15.1644 3.70365 14.987 3.82228 14.8376 3.97184L12.5719 6.23746L15.4469 9.11246C16.1157 8.87809 16.8813 9.03821 17.4141 9.57109C17.6677 9.82518 17.8447 10.1455 17.925 10.4954C18.0052 10.8453 17.9855 11.2107 17.8679 11.55L20.6391 14.3211C21.3094 14.0898 22.0828 14.239 22.6179 14.7757C22.886 15.0437 23.0685 15.3851 23.1424 15.7568C23.2163 16.1286 23.1783 16.5139 23.0331 16.864C22.8384 17.3333 22.4653 17.7062 21.9959 17.9006C21.5264 18.095 20.9989 18.095 20.5294 17.9006C20.2969 17.8042 20.0857 17.6631 19.9078 17.4851C19.3453 16.9226 19.2063 16.0945 19.4907 15.4015L16.9063 12.8171V19.618C17.0939 19.7108 17.2654 19.8332 17.4141 19.9805C17.7734 20.3397 17.9752 20.827 17.9752 21.3351C17.9752 21.8433 17.7734 22.3306 17.4141 22.6898C17.0548 23.0491 16.5675 23.251 16.0594 23.251C15.5513 23.251 15.064 23.0491 14.7047 22.6898C14.4365 22.422 14.2539 22.0806 14.1799 21.7089C14.1059 21.3372 14.1438 20.9519 14.2889 20.6018C14.3853 20.3694 14.5266 20.1582 14.7047 19.9805C14.8898 19.7961 15.0953 19.6562 15.3321 19.5625V12.6983C15.0972 12.6023 14.8839 12.4602 14.7047 12.2805C14.4357 12.0118 14.2528 11.669 14.1794 11.296C14.1059 10.9229 14.1452 10.5365 14.2922 10.1858L11.4563 7.35171L3.97195 14.8282C3.74664 15.0534 3.59318 15.3403 3.53099 15.6527C3.46879 15.9651 3.50067 16.2889 3.62257 16.5832C3.70359 16.7786 3.82231 16.9561 3.97195 17.1056L14.8876 28.0196C15.037 28.1691 15.2144 28.2877 15.4097 28.3687C15.8042 28.532 16.2474 28.532 16.6419 28.3687C16.8372 28.2877 17.0146 28.1691 17.1641 28.0196L28.0289 17.172C28.1785 17.0225 28.2972 16.845 28.3782 16.6496C28.4592 16.4542 28.5009 16.2448 28.5009 16.0333C28.501 15.8218 28.4593 15.6124 28.3783 15.417C28.2973 15.2216 28.1786 15.0441 28.0289 14.8946" fill="white"/>
</g>
</g>
<defs>
<clipPath id="clip0_940_115">
<rect width="32" height="32" fill="white"/>
</clipPath>
</defs>
</svg>
