<svg width="32" height="32" viewBox="0 0 32 32" fill="none" xmlns="http://www.w3.org/2000/svg">
    <g clip-path="url(#clip0_937_107)">
        <path
            d="M31.1881 12.8455L31.1438 12.7325L26.8668 1.57054C26.7798 1.35172 26.6257 1.1661 26.4266 1.04028C26.2274 0.916615 25.9951 0.857038 25.761 0.869601C25.5269 0.882164 25.3023 0.966261 25.1176 1.11053C24.9349 1.25894 24.8023 1.46008 24.7381 1.68653L21.8503 10.522H10.1566L7.26858 1.68653C7.20592 1.45893 7.07313 1.25686 6.88908 1.10903C6.70431 0.964761 6.47971 0.880664 6.24562 0.868101C6.01153 0.855538 5.77923 0.915115 5.58008 1.03879C5.38149 1.16515 5.22752 1.3506 5.13983 1.56903L0.854828 12.726L0.812328 12.839C-0.452422 16.1438 0.621578 19.887 3.44658 22.018L3.46133 22.0295L3.50058 22.0573L10.0158 26.9363L13.2391 29.3758L15.2026 30.8583C15.4323 31.0326 15.7127 31.127 16.0011 31.127C16.2894 31.127 16.5699 31.0326 16.7996 30.8583L18.7631 29.3758L21.9863 26.9363L28.5408 22.0278L28.5571 22.0148C31.3753 19.8833 32.4476 16.1468 31.1881 12.8455Z"
            fill="#E24329" />
        <path
            d="M31.1887 12.8455L31.1445 12.7325C29.0605 13.1603 27.0966 14.0431 25.3932 15.3178L16 22.4205C19.1988 24.8405 21.9835 26.943 21.9835 26.943L28.538 22.0345L28.5543 22.0215C31.377 19.8898 32.4507 16.1495 31.1887 12.8455Z"
            fill="#FC6D26" />
        <path
            d="M10.0156 26.9428L13.2389 29.3823L15.2024 30.8648C15.4321 31.0391 15.7125 31.1335 16.0009 31.1335C16.2892 31.1335 16.5697 31.0391 16.7994 30.8648L18.7629 29.3823L21.9861 26.9428C21.9861 26.9428 19.1981 24.8338 15.9994 22.4203C14.0036 23.9262 12.009 25.4337 10.0156 26.9428Z"
            fill="#FCA326" />
        <path
            d="M6.60433 15.3177C4.90233 14.0405 2.93896 13.1555 0.854828 12.726L0.812328 12.839C-0.452422 16.1437 0.621578 19.887 3.44658 22.018L3.46133 22.0295L3.50058 22.0572L10.0158 26.9362L15.9993 22.4137L6.60433 15.3177Z"
            fill="#FC6D26" />
    </g>
    <defs>
        <clipPath id="clip0_937_107">
            <rect width="32" height="32" fill="white" />
        </clipPath>
    </defs>
</svg>