<svg width="33" height="32" viewBox="0 0 33 32" fill="none" xmlns="http://www.w3.org/2000/svg">
    <g clip-path="url(#clip0_937_36)">
        <path
            d="M27.33 0H5.44195C2.43752 0 0.00195312 2.43557 0.00195312 5.44V26.5088C0.00195312 29.5132 2.43752 31.9488 5.44195 31.9488H27.33C30.3344 31.9488 32.77 29.5132 32.77 26.5088V5.44C32.77 2.43557 30.3344 0 27.33 0Z"
            fill="#001E36" />
        <path
            d="M7.37891 22.4044V8.35796C7.37891 8.25556 7.42294 8.2041 7.51087 8.2041L7.65001 8.20372L7.88783 8.20116L8.21833 8.19463L9.32553 8.17121L10.5127 8.14919C10.9303 8.14202 11.3442 8.13818 11.7546 8.13818C12.8682 8.13818 13.806 8.27745 14.5683 8.55585C15.2559 8.78842 15.8829 9.17139 16.4038 9.67687C16.8454 10.1151 17.1866 10.6438 17.404 11.2267C17.6096 11.7939 17.7138 12.3929 17.7118 12.9962C17.7118 14.1688 17.4406 15.1359 16.8984 15.8978C16.3681 16.6411 15.6283 17.2095 14.7736 17.5306L14.7003 17.5574C13.8077 17.8904 12.8193 18.0107 11.7353 18.0182L11.5668 18.0188L11.3168 18.0175L11.1907 18.0157L11.0502 18.0124L10.9655 18.009L10.914 18.0063L10.7874 18.0017L10.6327 17.9985L10.3997 17.9969L10.3479 17.9967V22.3824C10.3517 22.4093 10.3493 22.4367 10.3407 22.4625C10.3321 22.4882 10.3176 22.5117 10.2984 22.5309C10.2792 22.5501 10.2558 22.5645 10.23 22.5731C10.2043 22.5817 10.1769 22.5841 10.15 22.5803H7.53289C7.43011 22.5803 7.37891 22.5219 7.37891 22.4044ZM10.348 10.8419V15.4233C10.5234 15.4375 10.6993 15.4448 10.8754 15.4453H11.6009C12.1011 15.4436 12.5983 15.3692 13.0771 15.2243L13.1726 15.1944C13.6081 15.0651 13.9973 14.8132 14.2937 14.4689C14.5692 14.1441 14.7119 13.6965 14.7218 13.126L14.7224 13.0621C14.7339 12.6369 14.6233 12.2173 14.4035 11.8531C14.1726 11.5009 13.8387 11.2284 13.4474 11.0727C12.9364 10.8741 12.3906 10.7807 11.8427 10.798L11.5639 10.7988L11.388 10.8003L11.2202 10.8025L10.9834 10.8071L10.8106 10.812L10.7209 10.8153L10.6009 10.8209L10.4988 10.8272L10.4405 10.8318L10.3902 10.8367L10.3681 10.8392L10.348 10.8419ZM26.211 14.5903C25.8276 14.3932 25.4208 14.2452 25.0004 14.1497L24.9031 14.1287C24.4406 14.0226 23.9684 13.9641 23.494 13.9542L23.3755 13.9528C23.0973 13.9453 22.8196 13.9786 22.5511 14.0518C22.3802 14.0898 22.2283 14.1871 22.1223 14.3265C22.0507 14.438 22.0126 14.5677 22.0125 14.7002C22.0165 14.8288 22.0629 14.9524 22.1443 15.0518C22.261 15.1883 22.4013 15.3026 22.5584 15.3894L22.606 15.4146C22.9195 15.5834 23.2424 15.7338 23.5732 15.8652C24.3109 16.1121 25.0159 16.448 25.6724 16.8654C26.1197 17.1477 26.4899 17.5367 26.7497 17.9975C26.968 18.4338 27.0774 18.9165 27.0684 19.4042C27.0815 20.0484 26.8974 20.6813 26.5408 21.2179C26.1589 21.7625 25.6286 22.1859 25.013 22.4377C24.3682 22.7211 23.5764 22.8674 22.6377 22.877L22.5401 22.8775C21.9582 22.8834 21.377 22.8325 20.805 22.7254L20.6826 22.7016C20.2009 22.6133 19.7321 22.4656 19.2867 22.262C19.242 22.2389 19.2042 22.2043 19.1771 22.1618C19.1501 22.1193 19.1348 22.0704 19.1329 22.02V19.6241C19.1303 19.6009 19.134 19.5773 19.1437 19.556C19.1534 19.5347 19.1687 19.5165 19.1879 19.5032C19.2068 19.4925 19.2285 19.4879 19.2501 19.4898C19.2717 19.4918 19.2921 19.5003 19.3088 19.5142C19.8347 19.8243 20.4057 20.0505 21.0013 20.1846C21.5263 20.3163 22.0648 20.3864 22.606 20.3935C23.1188 20.3935 23.4962 20.3275 23.7381 20.1957C23.8473 20.1457 23.9397 20.0651 24.0041 19.9636C24.0685 19.8622 24.1021 19.7443 24.1008 19.6241C24.1008 19.4339 23.9909 19.2506 23.7711 19.0746C23.6789 19.0009 23.5467 18.9206 23.3747 18.834L23.2924 18.7935L23.2046 18.7522L23.1585 18.7312L23.062 18.6885C23.0452 18.6811 23.0285 18.6739 23.0117 18.6667L22.9067 18.6227L22.8521 18.6003L22.7387 18.5548L22.6798 18.5318L22.5578 18.4848L22.4302 18.4371C21.7399 18.1968 21.0855 17.8641 20.4847 17.4479C20.055 17.149 19.7012 16.7538 19.4516 16.2938C19.2354 15.8607 19.1261 15.382 19.1329 14.898C19.1317 14.3164 19.2914 13.7458 19.5945 13.2494C19.9401 12.7028 20.4362 12.2676 21.0233 11.9965C21.6681 11.6743 22.4739 11.513 23.4412 11.5128C24.0078 11.5082 24.5738 11.5487 25.1339 11.6337C25.5395 11.6852 25.9361 11.7924 26.3123 11.9525C26.3728 11.9699 26.4216 12.0145 26.4441 12.0734C26.4591 12.127 26.4664 12.1825 26.4661 12.2383V14.4584C26.4693 14.5109 26.4441 14.5612 26.4002 14.5903C26.3708 14.6049 26.3385 14.6125 26.3056 14.6125C26.2728 14.6125 26.2404 14.6049 26.211 14.5903Z"
            fill="#31A8FF" />
    </g>
    <defs>
        <clipPath id="clip0_937_36">
            <rect width="32.77" height="32" fill="white" />
        </clipPath>
    </defs>
</svg>