<svg width="33" height="32" viewBox="0 0 33 32" fill="none" xmlns="http://www.w3.org/2000/svg">
    <g clip-path="url(#clip0_937_42)">
        <path
            d="M27.33 0H5.44195C2.43752 0 0.00195312 2.43557 0.00195312 5.44V26.5088C0.00195312 29.5132 2.43752 31.9488 5.44195 31.9488H27.33C30.3344 31.9488 32.77 29.5132 32.77 26.5088V5.44C32.77 2.43557 30.3344 0 27.33 0Z"
            fill="#330000" />
        <path
            d="M15.8795 19.1731H10.8017L9.76849 22.3825C9.75443 22.441 9.72039 22.4928 9.67223 22.5289C9.62407 22.5651 9.56482 22.5833 9.50468 22.5804H6.93278C6.78622 22.5804 6.73489 22.4997 6.77892 22.3384L11.1753 9.67695C11.2192 9.54511 11.2633 9.39496 11.3072 9.22639C11.3648 8.93301 11.3942 8.63503 11.3951 8.33615C11.3921 8.31524 11.394 8.29392 11.4007 8.27388C11.4074 8.25385 11.4186 8.23564 11.4336 8.2207C11.4485 8.20576 11.4667 8.1945 11.4867 8.18781C11.5067 8.18112 11.5281 8.17919 11.549 8.18216H15.0441C15.1465 8.18216 15.2052 8.2189 15.22 8.29224L20.2098 22.3605C20.2539 22.5072 20.2098 22.5805 20.078 22.5804H17.2203C17.1712 22.5858 17.1218 22.5732 17.0814 22.5449C17.0409 22.5166 17.0122 22.4745 17.0005 22.4265L15.8795 19.1731ZM11.593 16.4035H15.0662L15.0166 16.24L14.9371 15.9812L14.8804 15.7994L14.7899 15.5132L14.5975 14.9107L14.4283 14.3766L13.9889 12.9852C13.8795 12.6394 13.7746 12.2921 13.674 11.9436L13.5936 11.6607L13.4997 11.3262L13.3563 10.8078L13.3295 10.7102H13.3076C13.1976 11.2378 13.0636 11.7601 12.9062 12.2756L12.58 13.3247L12.4006 13.9043L12.2194 14.491C12.1867 14.597 12.1542 14.7018 12.1215 14.8054L12.0242 15.1123L11.9275 15.4121L11.8312 15.7045L11.7355 15.9895C11.7037 16.0833 11.672 16.1759 11.6404 16.2673L11.593 16.4035ZM23.1771 10.5123C22.9529 10.5213 22.7294 10.4829 22.521 10.3995C22.3127 10.3162 22.1243 10.1898 21.9682 10.0287C21.8124 9.86056 21.6915 9.66331 21.6123 9.44828C21.533 9.23324 21.4971 9.00467 21.5065 8.7757C21.4985 8.54902 21.5384 8.32322 21.6237 8.11302C21.7089 7.90283 21.8375 7.71298 22.0011 7.55586C22.3166 7.25296 22.7368 7.08346 23.1742 7.08264L23.221 7.08315C23.7487 7.08315 24.1627 7.24059 24.4631 7.55573C24.6148 7.71947 24.7326 7.9115 24.8099 8.12084C24.8872 8.33018 24.9225 8.55271 24.9137 8.7757C24.9229 9.00558 24.8858 9.23497 24.8047 9.45024C24.7235 9.66551 24.5999 9.86227 24.4411 10.0288C24.2809 10.1868 24.0907 10.3111 23.8816 10.3944C23.6726 10.4777 23.4491 10.5183 23.2241 10.5139L23.1771 10.5123ZM21.6603 22.3605V11.8532C21.6603 11.7214 21.7187 11.6553 21.8362 11.6553H24.5401C24.6572 11.6553 24.7158 11.7212 24.7159 11.8532V22.3605C24.7159 22.5072 24.6573 22.5805 24.5401 22.5804H21.8582C21.7333 22.5804 21.6675 22.5146 21.661 22.383L21.6603 22.3605Z"
            fill="#FF9A00" />
    </g>
    <defs>
        <clipPath id="clip0_937_42">
            <rect width="32.77" height="32" fill="white" />
        </clipPath>
    </defs>
</svg>