<svg width="220" height="54" viewBox="0 0 220 54" fill="none" xmlns="http://www.w3.org/2000/svg">
<path d="M65.4118 6.26385H67.2241L74.7774 24.3266H72.0533L70.376 20.2419H62.1585L60.5038 24.3266H57.8359L65.4118 6.26385ZM69.5205 18.1007L66.2898 10.1948L63.0366 18.1007H69.5205Z" fill="#5F9DF7"/>
<path d="M75.4414 15.2894C75.4414 10.1067 79.3925 6 84.7508 6C87.655 6 89.8163 7.04314 91.5274 8.70118L89.7938 10.3922C88.5894 9.12941 86.8896 8.34981 84.7508 8.34981C80.8334 8.34981 78.0305 11.2596 78.0305 15.3004C78.0305 19.3632 80.8559 22.251 84.7508 22.251C87.0697 22.251 88.7244 21.4494 89.9289 20.1647L91.6625 21.8337C89.9852 23.5467 87.6888 24.5898 84.7846 24.5898C79.4151 24.5788 75.4414 20.4722 75.4414 15.2894Z" fill="#5F9DF7"/>
<path d="M93.0469 15.2894C93.0469 10.1067 96.998 6 102.356 6C105.261 6 107.422 7.04314 109.133 8.70118L107.399 10.3922C106.195 9.12941 104.495 8.34981 102.356 8.34981C98.4389 8.34981 95.6359 11.2596 95.6359 15.3004C95.6359 19.3632 98.4614 22.251 102.356 22.251C104.675 22.251 106.33 21.4494 107.534 20.1647L109.268 21.8337C107.591 23.5467 105.294 24.5898 102.39 24.5898C97.0205 24.5788 93.0469 20.4722 93.0469 15.2894Z" fill="#5F9DF7"/>
<path d="M112.117 17.6396V6.26385H114.627V17.5847C114.627 20.4176 116.631 22.2403 119.265 22.2403C121.933 22.2403 123.881 20.4176 123.881 17.6066V6.26385H126.413V17.6615C126.413 21.6474 123.374 24.5792 119.265 24.5792C115.19 24.5792 112.117 21.6145 112.117 17.6396Z" fill="#5F9DF7"/>
<path d="M130.554 6.26385H137.353C140.876 6.26385 143.139 8.42699 143.139 11.3588C143.139 14.3235 141.034 16.2999 137.747 16.4317L144.388 24.3156H141.214L134.674 16.4537H133.042V24.3156H130.531V6.26385H130.554ZM133.064 8.39405V14.4003H137.252C139.413 14.4003 140.64 13.2584 140.64 11.4027C140.64 9.68974 139.413 8.38307 137.274 8.38307H133.064V8.39405Z" fill="#5F9DF7"/>
<path d="M152.619 6.26385H154.431L161.984 24.3266H159.26L157.583 20.2419H149.366L147.711 24.3266H145.043L152.619 6.26385ZM156.728 18.1007L153.497 10.1948L150.244 18.1007H156.728Z" fill="#5F9DF7"/>
<path d="M167.173 8.50386H160.881V6.26385H175.954V8.50386H169.684V24.3266H167.173V8.50386Z" fill="#5F9DF7"/>
<path d="M178.947 6.26385H181.458V24.3266H178.947V6.26385Z" fill="#5F9DF7"/>
<path d="M184.891 15.2894C184.891 10.1067 188.842 6 194.2 6C197.104 6 199.266 7.04314 200.977 8.70118L199.243 10.3922C198.039 9.11844 196.339 8.33883 194.2 8.33883C190.283 8.33883 187.48 11.2486 187.48 15.2894C187.48 19.3522 190.305 22.24 194.2 22.24C196.519 22.24 198.174 21.4384 199.378 20.1537L201.112 21.8228C199.434 23.5357 197.138 24.5788 194.234 24.5788C188.864 24.5788 184.891 20.4722 184.891 15.2894Z" fill="#5F9DF7"/>
<path d="M202.52 21.5373L204.231 19.8683C205.401 21.4604 206.842 22.2839 209.082 22.2839C211.266 22.2839 212.741 21.2957 212.741 19.6596C212.741 15.0039 203.724 17.3208 203.724 10.8643C203.724 7.82275 206.234 6 209.544 6C211.975 6 213.923 7.0102 215.15 8.50353L213.439 10.1726C212.347 8.92079 211.142 8.2949 209.487 8.2949C207.484 8.2949 206.234 9.18432 206.234 10.7106C206.234 14.949 215.273 12.7969 215.273 19.4839C215.273 22.6792 212.842 24.5788 209.003 24.5788C206.077 24.5788 204.095 23.5137 202.52 21.5373Z" fill="#5F9DF7"/>
<path d="M57.8574 44.9584L59.5685 43.2894C60.7392 44.8816 62.18 45.7051 64.4201 45.7051C66.604 45.7051 68.0786 44.7168 68.0786 43.0808C68.0786 38.4251 59.0619 40.7419 59.0619 34.2855C59.0619 31.2439 61.5722 29.4211 64.8817 29.4211C67.3131 29.4211 69.2606 30.4313 70.4876 31.9247L68.7653 33.5827C67.6734 32.3309 66.4689 31.7051 64.8141 31.7051C62.8104 31.7051 61.5609 32.5945 61.5609 34.1208C61.5609 38.3592 70.6001 36.207 70.6001 42.8941C70.6001 46.0894 68.1686 47.989 64.3301 47.989C61.4033 48 59.4334 46.9349 57.8574 44.9584Z" fill="#FF731D"/>
<path d="M73.6738 38.6886C73.6738 33.5059 77.76 29.4211 82.9832 29.4211C88.2401 29.4211 92.3489 33.5059 92.3489 38.7106C92.3489 43.8933 88.2626 48 83.0395 48C77.8163 48 73.6738 43.8604 73.6738 38.6886ZM89.7598 38.6886C89.7598 34.6808 86.9343 31.771 82.9832 31.771C79.0658 31.771 76.2629 34.6588 76.2629 38.6886C76.2629 42.7514 79.0658 45.6612 82.9832 45.6612C86.9343 45.6612 89.7598 42.7404 89.7598 38.6886Z" fill="#FF731D"/>
<path d="M96.3223 29.685H108.142V31.925H98.8325V37.5689H107.692V39.8089H98.8325V47.7478H96.3223V29.685Z" fill="#FF731D"/>
<path d="M116.281 31.925H109.988V29.685H125.061V31.925H118.791V47.7478H116.281V31.925V31.925Z" fill="#FF731D"/>
<path d="M126.445 29.685H128.956L133.379 43.3227L137.758 29.685H139.571L143.95 43.3227L148.407 29.685H150.884L144.85 47.7478H143.06L138.659 34.1101L134.28 47.7478H132.49L126.445 29.685Z" fill="#FF731D"/>
<path d="M158.425 29.685H160.238L167.791 47.7478H165.067L163.39 43.6631H155.172L153.517 47.7478H150.85L158.425 29.685ZM162.534 41.5219L159.303 33.616L156.05 41.5219H162.534Z" fill="#FF731D"/>
<path d="M171.101 29.685H177.9C181.423 29.685 183.686 31.8481 183.686 34.7799C183.686 37.7446 181.581 39.7211 178.294 39.8529L184.935 47.7368H181.761L175.221 39.8748H173.588V47.7368H171.078V29.685H171.101ZM173.611 31.8152V37.8215H177.798C179.96 37.8215 181.187 36.6795 181.187 34.8238C181.187 33.1109 179.96 31.8042 177.821 31.8042H173.611V31.8152Z" fill="#FF731D"/>
<path d="M188.064 29.685H200.256V31.925H190.575V37.4372H199.513V39.5674H190.575V45.4968H200.391V47.7368H188.064V29.685Z" fill="#FF731D"/>
<path d="M202.52 44.9584L204.231 43.2894C205.401 44.8816 206.842 45.7051 209.082 45.7051C211.266 45.7051 212.741 44.7168 212.741 43.0808C212.741 38.4251 203.724 40.7419 203.724 34.2855C203.724 31.2439 206.234 29.4211 209.544 29.4211C211.975 29.4211 213.923 30.4313 215.15 31.9247L213.439 33.5937C212.347 32.3419 211.142 31.716 209.487 31.716C207.484 31.716 206.234 32.6055 206.234 34.1317C206.234 38.3702 215.273 36.218 215.273 42.9051C215.273 46.1004 212.842 48 209.003 48C206.077 48 204.095 46.9349 202.52 44.9584Z" fill="#FF731D"/>
<path d="M33.4983 22.5365L32.1587 23.8432C31.8548 24.1397 31.427 24.3154 30.988 24.3154H21.6787C21.2396 24.3154 20.8231 24.1507 20.5079 23.8432L19.1684 22.5365C18.6618 22.0424 18.538 21.2958 18.8645 20.6809L26.3277 6.10986L33.8022 20.6809C34.1174 21.3067 33.9936 22.0534 33.4983 22.5365Z" fill="#5F9DF7"/>
<path d="M38.4737 29.8056L46.4773 45.4088C47.0289 46.4739 46.2297 47.7366 45.0027 47.7366H43.3592C42.74 47.7366 42.1659 47.3962 41.8845 46.8472L34.7027 32.8472C34.4663 32.397 34.4663 31.8589 34.7027 31.4088L35.5244 29.8056C36.1323 28.6197 37.8658 28.6197 38.4737 29.8056Z" fill="#FF731D"/>
<path d="M31.6631 26.9285C32.8901 26.9285 33.6894 28.1913 33.1378 29.2564L32.9914 29.5309L32.3948 30.6948C32.1134 31.2438 31.5393 31.5842 30.9202 31.5842H19.6184C18.9992 31.5842 18.4251 31.9246 18.1437 32.4736L10.7705 46.858C10.4891 47.407 9.915 47.7474 9.29587 47.7474H7.65238C6.42539 47.7474 5.62615 46.4846 6.17774 45.4195L13.2695 31.5842L15.1944 27.8179C15.4759 27.2689 16.05 26.9285 16.6691 26.9285H20.9917H31.6631Z" fill="#5F9DF7"/>
</svg>
