<svg width="21" height="20" viewBox="0 0 21 20" fill="none" xmlns="http://www.w3.org/2000/svg">
    <path
        d="M17.1001 10.6633L10.6891 17.0696C9.80979 17.9486 8.61725 18.4423 7.37387 18.4421C6.13049 18.4419 4.93812 17.9478 4.05907 17.0684C3.18002 16.189 2.6863 14.9965 2.68652 13.7531C2.68674 12.5097 3.18089 11.3174 4.06024 10.4383L11.729 2.79066C12.3153 2.2047 13.1103 1.87563 13.9392 1.87585C14.3496 1.87596 14.756 1.95691 15.1352 2.11408C15.5143 2.27124 15.8588 2.50154 16.1489 2.79184C16.4391 3.08213 16.6692 3.42673 16.8261 3.80595C16.9831 4.18518 17.0638 4.59161 17.0637 5.00204C17.0636 5.41247 16.9827 5.81886 16.8255 6.198C16.6683 6.57714 16.438 6.92162 16.1477 7.21176L16.1345 7.22426L8.65009 14.4289C8.56134 14.5143 8.45665 14.5813 8.342 14.6262C8.22734 14.6711 8.10497 14.693 7.98186 14.6906C7.85875 14.6882 7.73731 14.6616 7.62449 14.6123C7.51167 14.563 7.40967 14.4919 7.32431 14.4032C7.23895 14.3144 7.1719 14.2097 7.127 14.0951C7.0821 13.9804 7.06022 13.858 7.06262 13.7349C7.06501 13.6118 7.09163 13.4904 7.14096 13.3776C7.19028 13.2647 7.26134 13.1627 7.35009 13.0774L14.8274 5.88051C15.0612 5.64534 15.1919 5.32695 15.1909 4.99539C15.1898 4.66383 15.0571 4.34626 14.822 4.11254C14.7055 3.99681 14.5674 3.90515 14.4155 3.8428C14.2637 3.78044 14.101 3.74861 13.9368 3.74912C13.6053 3.75014 13.2877 3.88284 13.054 4.11801L5.38524 11.7633C4.85782 12.291 4.56159 13.0065 4.56174 13.7525C4.56181 14.1219 4.63464 14.4877 4.77607 14.829C4.9175 15.1702 5.12477 15.4803 5.38602 15.7414C5.64728 16.0026 5.95742 16.2097 6.29873 16.351C6.64005 16.4923 7.00585 16.565 7.37525 16.565C8.12129 16.5648 8.83672 16.2683 9.36415 15.7407L15.7751 9.33441C15.8623 9.24721 15.9658 9.17803 16.0798 9.13084C16.1937 9.08364 16.3158 9.05935 16.4391 9.05935C16.5625 9.05935 16.6846 9.08364 16.7985 9.13084C16.9125 9.17803 17.016 9.24721 17.1032 9.33441C17.1904 9.42162 17.2596 9.52515 17.3068 9.63909C17.354 9.75303 17.3783 9.87515 17.3783 9.99848C17.3783 10.1218 17.354 10.2439 17.3068 10.3579C17.2596 10.4718 17.1904 10.5753 17.1032 10.6625L17.1001 10.6633Z"
        fill="#F9FAFF" />
</svg>