<svg width="144" height="147" viewBox="0 0 144 147" fill="none" xmlns="http://www.w3.org/2000/svg">
<path d="M80.9892 113.053C80.9303 113.069 80.8802 113.108 80.85 113.161C80.8198 113.214 80.812 113.277 80.8282 113.336C80.8445 113.395 80.8835 113.445 80.9367 113.476C80.9899 113.506 81.0529 113.514 81.1119 113.497C83.0489 113.073 84.8649 112.216 86.4239 110.991C92.3492 106.614 92.0426 100.405 95.4153 94.725C98.1135 90.3941 100.482 90.8923 100.298 90.3328C100.291 90.3107 100.28 90.2902 100.265 90.2726C100.25 90.2551 100.231 90.2408 100.21 90.2307C100.189 90.2207 100.167 90.215 100.144 90.2141C100.12 90.2132 100.097 90.2171 100.076 90.2255C89.467 94.1271 95.4613 108.04 80.9892 113.053ZM123.923 99.4238C124.222 99.1095 124.52 98.7799 124.812 98.4503C127.065 95.7138 128.644 91.4749 128.491 88.3551C128.487 88.3215 128.474 88.2896 128.453 88.2629C128.432 88.2362 128.405 88.2158 128.373 88.2039C128.341 88.192 128.307 88.1891 128.274 88.1955C128.24 88.2019 128.21 88.2174 128.185 88.2401C127.955 88.4624 128.598 89.6889 126.981 93.5522C125.448 97.2162 124.107 98.1514 122.596 99.8608C121.244 101.423 120.215 103.238 119.572 105.202C118.928 107.166 118.682 109.238 118.848 111.297C118.857 111.341 118.88 111.38 118.915 111.408C118.949 111.436 118.992 111.451 119.036 111.451C119.08 111.451 119.123 111.436 119.157 111.408C119.191 111.38 119.215 111.341 119.224 111.297C119.171 109.104 119.56 106.923 120.367 104.883C121.175 102.844 122.384 100.987 123.923 99.4238ZM56.6212 66.325C57.3877 65.7961 57.3341 64.1788 56.6212 63.5809C56.4196 63.4181 56.1846 63.3019 55.933 63.2403C55.6814 63.1787 55.4192 63.1733 55.1653 63.2246C54.9113 63.2758 54.6718 63.3824 54.4637 63.5367C54.2556 63.691 54.0841 63.8893 53.9613 64.1174C53.8191 64.4741 53.7935 64.8666 53.8882 65.2387C53.9829 65.6108 54.193 65.9433 54.4885 66.1885C54.7839 66.4337 55.1495 66.579 55.5326 66.6035C55.9158 66.6281 56.2969 66.5306 56.6212 66.325ZM54.5132 64.5697C54.7432 63.6958 56.2533 63.5732 56.4832 64.447C56.6365 65.0449 56.5676 65.4665 56.2609 65.6965C56.0767 65.8111 55.8671 65.8787 55.6506 65.8934C55.4341 65.9081 55.2172 65.8694 55.0192 65.7808C54.8117 65.6644 54.6493 65.4819 54.5576 65.2624C54.4659 65.0429 54.4503 64.7991 54.5132 64.5697ZM82.8136 52.1442C82.7841 52.1421 82.7545 52.1461 82.7267 52.1559C82.6989 52.1658 82.6734 52.1813 82.6518 52.2014C82.6302 52.2215 82.613 52.2459 82.6013 52.273C82.5895 52.3001 82.5835 52.3293 82.5836 52.3589C82.5836 53.1254 81.2882 53.8919 81.0505 53.9686C81.0048 53.9797 80.9654 54.0086 80.9409 54.0489C80.9165 54.0891 80.909 54.1375 80.9202 54.1832C80.9314 54.2289 80.9603 54.2684 81.0006 54.2928C81.0408 54.3172 81.0891 54.3247 81.1349 54.3135C83.1508 53.8996 83.4574 52.1289 82.8136 52.1442ZM80.123 50.9714C80.0311 50.9178 79.6248 50.6188 79.4791 50.5038C79.4791 50.4042 79.8394 49.1241 79.9084 48.8788C79.9774 48.6335 79.6631 48.5722 79.5788 48.7715C79.2581 49.3929 79.0013 50.0452 78.8123 50.7185C78.8736 50.9408 79.9391 51.2321 80.0157 51.2321C80.0477 51.2364 80.0801 51.23 80.1081 51.214C80.136 51.1979 80.1578 51.173 80.1701 51.1432C80.1823 51.1134 80.1844 51.0804 80.1759 51.0493C80.1673 51.0182 80.1488 50.9908 80.123 50.9714ZM77.5935 46.8628C77.5825 46.7966 77.5483 46.7364 77.4971 46.6929C77.4458 46.6495 77.3809 46.6257 77.3137 46.6257C77.2465 46.6257 77.1816 46.6495 77.1303 46.6929C77.0791 46.7364 77.0449 46.7966 77.0339 46.8628C77.0047 47.3913 77.0047 47.921 77.0339 48.4495C77.0819 48.5281 77.1548 48.5884 77.241 48.621C77.3271 48.6535 77.4217 48.6563 77.5097 48.629C77.5976 48.6018 77.674 48.5459 77.7266 48.4704C77.7793 48.3948 77.8053 48.3039 77.8004 48.2119C77.6943 47.7687 77.625 47.3175 77.5935 46.8628ZM82.9515 48.2043C82.8532 47.7647 82.7841 47.3192 82.7446 46.8705C82.7446 46.7953 82.7147 46.7231 82.6615 46.6699C82.6083 46.6168 82.5362 46.5869 82.461 46.5869C82.3857 46.5869 82.3136 46.6168 82.2604 46.6699C82.2072 46.7231 82.1773 46.7953 82.1773 46.8705C82.1495 47.3811 82.1495 47.8929 82.1773 48.4036C82.1816 48.4629 82.1989 48.5206 82.228 48.5725C82.257 48.6244 82.2971 48.6694 82.3454 48.7041C82.3937 48.7388 82.4491 48.7625 82.5075 48.7735C82.566 48.7845 82.6262 48.7825 82.6838 48.7677C82.7414 48.7528 82.7951 48.7255 82.841 48.6877C82.8869 48.6498 82.9239 48.6023 82.9495 48.5486C82.975 48.4948 82.9884 48.4362 82.9888 48.3766C82.9891 48.3171 82.9764 48.2583 82.9515 48.2043Z" fill="black"/>
<path d="M142.94 37.7641C142.887 32.9887 141.285 31.103 136.341 31.2486C134.93 31.2486 109.78 31.5016 107.979 31.5629C106.771 31.5632 105.576 31.8111 104.468 32.2911C103.832 32.5441 100.505 34.2074 100.137 35.089C99.7387 35.7175 100.206 53.6237 100.137 57.3183C99.6047 57.0151 99.0572 56.7388 98.4969 56.4905C98.3957 55.987 98.1807 55.5132 97.8686 55.1054C97.5564 54.6976 97.1552 54.3664 96.6956 54.1372C95.9904 53.8613 95.0859 54.1909 94.5646 53.6927C94.0434 53.1944 94.9785 52.9261 95.0782 52.1596C95.0751 51.6281 95.0134 51.0985 94.8942 50.5805C94.4322 47.8019 93.7869 45.0568 92.9626 42.3633C92.2727 40.1481 91.5521 38.2701 89.5668 37.0666C89.5668 33.3413 89.1912 11.5105 88.9843 10.353C88.7802 9.21068 88.171 8.18027 87.2684 7.45091C86.3659 6.72154 85.2305 6.34216 84.0708 6.38238C83.9942 6.38238 31.2415 6.38238 31.1802 6.44371C29.0722 7.70082 28.505 10.5063 28.367 12.576C28.321 13.6108 29.2255 34.5064 29.5858 41.1445C25.8528 41.2212 6.99616 41.7271 5.91535 42.302C3.47012 42.8999 0.764264 44.6016 0.235358 47.3688C-0.09425 49.1471 0.572632 83.3114 0.794925 84.9288C0.954122 86.6757 1.73471 88.3076 2.99487 89.528C4.36696 90.7314 6.23729 90.9537 7.88533 91.015L42.8621 90.3558C39.4434 98.0978 35.5034 109.074 32.8972 115.904C32.885 115.924 32.8785 115.946 32.8785 115.969C32.8785 115.992 32.885 116.015 32.8972 116.035C33.6026 116.727 34.3726 117.351 35.1968 117.897C33.9474 122.167 34.0853 122.404 33.8094 122.749C31.4408 125.655 28.5817 127.349 25.7608 127.625C24.4501 127.77 23.1546 128 22.6947 129.273C22.3191 130.43 23.3156 131.204 24.4807 131.526C25.2472 131.733 30.475 132.891 31.2492 132.983C31.9352 133.098 32.6391 132.941 33.2115 132.546C33.7634 132.139 35.5801 129.993 36.2776 129.349C35.0128 135.481 34.1313 133.527 37.1438 134.838C37.1859 134.86 37.2324 134.873 37.28 134.875C37.3276 134.877 37.3752 134.869 37.4192 134.851C37.4632 134.832 37.5025 134.804 37.5345 134.769C37.5664 134.734 37.59 134.692 37.6037 134.646C38.1403 133.113 41.7736 124.351 43.2531 122.075C43.6133 131.335 43.552 130.852 43.6823 130.89C44.1959 131.02 44.7555 131.143 45.3304 131.258C45.3304 132.546 45.3687 133.864 45.476 135.305C45.476 135.351 45.4147 135.428 45.3533 135.55C43.4524 139.72 41.3214 141.422 39.0065 142.449C37.9793 142.909 36.5612 143.538 36.5996 144.956C36.5996 146.182 37.8567 146.573 39.0755 146.527C40.9075 146.466 43.276 146.221 44.3492 146.167C47.4153 145.983 47.492 145.4 48.7951 142.771C49.094 142.166 49.4466 141.445 49.6459 141.092C50.0062 145.4 49.5309 146.037 50.1212 146.006C51.7232 145.922 52.4208 146.359 52.4208 145.784C52.4821 144.205 53.1873 137.996 53.5552 136.47C53.5552 136.294 53.4326 136.194 53.2486 136.156C53.4786 134.73 54.0151 131.925 54.0841 131.411C54.4674 131.358 54.8507 131.296 55.1496 131.227C55.2339 131.227 55.1496 131.633 56.445 126.291C65.7507 129.962 75.6773 130.844 84.5844 128.751C84.8987 129.97 87.1753 138.279 88.417 141.92C88.8402 143.11 89.4037 144.245 90.0957 145.301C90.272 145.469 90.571 145.768 90.8623 145.768C91.1535 145.768 91.4755 145.362 91.5521 144.948C91.6288 144.534 90.4253 132.446 90.0191 128.084C91.8403 127.633 93.6063 126.983 95.2852 126.145L97.7687 134.393C97.8414 134.516 97.9508 134.613 98.0816 134.67C98.2123 134.728 98.3578 134.743 98.4974 134.713C98.6371 134.683 98.764 134.611 98.8601 134.505C98.9563 134.4 99.0169 134.267 99.0335 134.125L98.7959 124.244C99.9564 123.488 101.068 122.658 102.123 121.761C102.602 122.224 103.14 122.621 103.725 122.941C103.785 122.974 103.855 122.982 103.921 122.964C103.987 122.945 104.043 122.901 104.077 122.841C104.715 121.877 105.43 120.967 106.216 120.12C106.063 121.109 105.764 123.133 105.725 123.761C105.724 123.802 105.731 123.842 105.746 123.88C105.762 123.917 105.784 123.952 105.813 123.98C105.841 124.009 105.876 124.032 105.913 124.047C105.951 124.062 105.991 124.069 106.032 124.068C106.846 124.042 107.659 124.148 108.439 124.382C105.94 125.586 104.798 126.605 104.951 127.448C105.251 128.954 105.671 130.433 106.208 131.871C106.622 133.067 107.051 134.309 108.339 134.83C114.241 137.329 123.011 135.504 128.936 133.013C133.964 131.043 134.7 127.854 134.256 123.347C134.164 122.489 133.167 122.389 131.074 122.443L136.172 115.996C137.705 114.164 136.371 114.226 135.888 110.631C136.35 111.315 136.905 111.931 137.536 112.463C137.574 112.492 137.617 112.513 137.663 112.525C137.709 112.537 137.758 112.539 137.805 112.532C138.012 112.493 137.851 112.601 139.752 109.182C139.788 109.119 139.801 109.047 139.79 108.975C139.779 108.904 139.744 108.839 139.69 108.791C138.855 108.101 136.839 106.491 136.839 106.491C137.878 106.245 138.902 105.938 139.905 105.571C140.144 105.51 140.361 105.381 140.529 105.2C140.697 105.02 140.811 104.795 140.855 104.552C140.955 103.954 140.963 91.9119 140.978 90.2715C140.978 90.0032 140.549 89.9266 140.503 90.2178C139.606 96.2964 135.49 101.356 130.231 102.866C130.4 102.183 130.829 100.704 130.592 100.298C129.725 99.752 128.802 99.2998 127.84 98.9486C128.798 98.4044 131.013 96.9863 131.174 96.5494C131.274 96.2964 130.783 84.4689 130.76 83.1734C130.756 83.12 130.736 83.0692 130.701 83.0283C130.667 82.9874 130.62 82.9584 130.568 82.9457C130.516 82.9329 130.462 82.9369 130.412 82.9572C130.363 82.9774 130.321 83.0129 130.293 83.0584C128.808 85.989 126.613 88.5006 123.907 90.3635C123.593 90.5781 121.332 91.7816 121.156 91.9425C120.588 92.4868 121.294 93.1537 121.592 93.5752C121.807 93.8665 122.543 94.8554 122.689 95.0623C119.99 95.3919 119.278 94.4644 119.14 95.0623C118.874 95.8432 118.517 96.5895 118.074 97.2853C118.232 97.9571 118.434 98.6178 118.68 99.2629C118.23 99.3368 117.772 99.3368 117.323 99.2629C117.243 99.2457 117.159 99.2589 117.088 99.3C117.017 99.3411 116.964 99.4071 116.94 99.4852C116.725 100.183 116.556 100.765 116.403 101.31C115.474 99.7337 114.45 98.2158 113.337 96.764C112.793 92.6094 110.83 87.7573 106.683 87.1134C109.803 85.8103 111.85 82.4605 112.34 79.0648C113.812 79.0648 135.076 79.0035 135.934 79.0648C140.587 79.1951 142.664 77.4168 143.101 72.672C143.278 70.7786 142.94 38.1091 142.94 37.7641ZM37.0901 129.027C37.1095 128.946 37.0973 128.861 37.056 128.788C37.0148 128.715 36.9475 128.661 36.8679 128.636C36.247 128.406 35.7717 128.951 35.4268 129.342C34.5536 130.404 33.5948 131.394 32.56 132.3C31.9851 132.576 25.2932 131.189 24.4577 130.928C24.008 130.826 23.6167 130.551 23.3692 130.162C23.2724 129.879 23.283 129.57 23.3989 129.295C23.5148 129.019 23.7279 128.796 23.9978 128.667C24.588 128.307 25.025 128.337 26.6807 128.031C28.3364 127.724 29.9767 127.425 32.8589 124.712C33.2604 124.327 33.6344 123.915 33.978 123.478C34.4566 124.542 35.2622 125.425 36.2776 125.999C37.638 126.604 39.1572 126.751 40.6085 126.421C39.842 127.954 37.7264 132.745 37.1975 134.209C36.7759 134.04 36.3466 133.887 35.925 133.764C36.3998 132.208 36.7888 130.626 37.0901 129.027ZM104.407 87.0521C103.329 87.0983 102.258 87.2523 101.21 87.512C97.7771 87.9001 94.3251 88.0997 90.8699 88.1099C90.364 85.0438 90.5173 85.611 90.387 84.7601C90.3334 84.3922 90.2567 83.8863 90.525 83.7253C94.1967 82.085 98.014 80.5979 101.67 78.9958C102.437 79.5554 102.498 79.4864 102.567 79.4404C102.6 79.405 102.618 79.3584 102.618 79.3101C102.618 79.2618 102.6 79.2152 102.567 79.1798C102.268 78.8775 101.953 78.5909 101.624 78.3213C98.6817 75.6897 96.632 72.2067 95.7604 68.3564C95.7502 68.3106 95.7223 68.2708 95.6828 68.2457C95.6432 68.2205 95.5953 68.2121 95.5496 68.2222C95.5039 68.2324 95.464 68.2603 95.4389 68.2999C95.4137 68.3394 95.4053 68.3873 95.4155 68.433C96.0649 72.4371 98.1359 76.073 101.249 78.6739L90.6783 83.0431C90.3728 83.1328 90.1041 83.3182 89.9118 83.572C89.3827 83.4282 88.9046 83.1387 88.532 82.7365C86.539 81.1345 85.7418 82.2306 83.1663 84.2696C82.9173 84.4574 82.6817 84.6623 82.4611 84.8828C81.0996 83.6718 79.7428 82.4556 78.3908 81.2341C78.0459 80.7282 74.9031 69.8895 73.6153 65.5356C74.6108 63.1219 76.2169 61.0087 78.2758 59.4033C78.5139 60.1303 78.8139 60.8356 79.1727 61.5113C79.7476 62.0632 80.4911 61.7949 81.2116 61.6186C81.0131 62.0305 80.8986 62.4779 80.8749 62.9346C80.8512 63.3913 80.9188 63.8482 81.0737 64.2784C81.6164 65.4952 82.4639 66.5513 83.5342 67.3446C86.1558 69.6442 86.0255 69.5828 86.1788 69.5828C86.2495 69.5793 86.3166 69.5501 86.3674 69.5008C86.4182 69.4514 86.4492 69.3852 86.4547 69.3145C86.7153 66.6394 87.5739 65.9035 89.9961 65.0526C91.3208 64.6202 92.4417 63.7183 93.1476 62.5168C93.8536 61.3153 94.0958 59.8972 93.8287 58.5295C95.4309 58.5416 97.0272 58.3353 98.5736 57.9162C98.6466 57.8998 98.7102 57.855 98.7504 57.7919C98.7906 57.7287 98.8042 57.6521 98.7882 57.579C98.7882 57.4487 98.7345 57.2953 98.6962 57.1344C109.88 62.5691 116.694 79.5017 107.672 85.795C106.691 86.452 105.575 86.8815 104.407 87.0521ZM106.982 87.9259C108.952 88.3475 110.6 90.0032 111.674 92.916C116.794 106.752 104.859 123.516 90.0421 127.41C89.9501 126.482 89.4442 121.101 89.3445 120.703C89.271 120.351 89.0687 120.039 88.7773 119.829C87.8345 119.308 86.2171 119.883 85.3586 120.388C84.5402 120.932 83.8088 121.596 83.1893 122.358C83.1893 122.604 84.2624 127.226 84.4924 128.169C75.1759 130.117 65.4922 129.286 56.6443 125.777C58.0088 120.105 59.8178 112.34 60.3237 109.933C65.5974 111.573 73.0098 111.42 73.0864 111.412C73.1109 111.406 73.1326 111.391 73.1481 111.371C73.1636 111.351 73.172 111.327 73.172 111.301C73.172 111.276 73.1636 111.251 73.1481 111.231C73.1326 111.211 73.1109 111.197 73.0864 111.19C68.8322 109.772 65.1605 106.116 62.7536 100.888C59.0512 93.077 51.3706 93.169 48.3811 97.0553C44.0579 102.666 43.3604 118.993 43.2914 120.963C43.0231 121.454 41.4824 124.466 40.8998 125.693C36.3006 126.789 34.9899 124.16 34.4303 123.033C34.3383 122.841 34.3843 123.347 35.81 118.311C36.5766 118.687 42.0266 120.611 42.0343 120.044C42.0956 113.528 43.6746 98.0288 47.9519 94.4644C51.018 91.9502 57.6485 92.3871 60.5843 94.5641C62.4507 96.2677 63.9775 98.3094 65.0838 100.581C67.5444 105.863 71.7833 109.78 76.4898 110.761C82.5224 110.232 89.5208 100.62 91.5215 94.4721C95.2162 89.7886 101.31 87.1057 106.982 87.9259ZM118.979 119.101C118.989 119.146 119.017 119.186 119.056 119.211C119.096 119.237 119.144 119.245 119.189 119.235C119.235 119.225 119.275 119.197 119.3 119.157C119.325 119.118 119.334 119.07 119.324 119.024C118.841 116.556 117.476 114.425 116.618 112.125C115.131 108.193 116.211 103.969 117.469 99.9758C118.029 100.081 118.609 100.005 119.124 99.7611C119.546 99.4315 119.209 98.872 118.733 97.4616C119.124 96.8705 119.431 96.2282 119.645 95.5529C120.844 95.8364 122.089 95.8521 123.294 95.5989C123.341 95.5869 123.384 95.5641 123.421 95.5323C123.457 95.5005 123.485 95.4605 123.503 95.4157C123.521 95.3709 123.528 95.3224 123.524 95.2743C123.519 95.2263 123.504 95.1799 123.478 95.139C122.965 94.4644 121.608 92.6171 121.539 92.4791C121.47 92.3411 121.539 92.3565 121.761 92.2568C125.425 90.5894 128.429 87.7495 130.3 84.1852C130.392 86.6918 130.691 96.0205 130.607 96.3961C129.416 97.2581 128.16 98.0269 126.851 98.6957C126.794 98.7272 126.747 98.775 126.717 98.8331C126.687 98.8911 126.675 98.9567 126.683 99.0215C126.69 99.0864 126.717 99.1476 126.759 99.1974C126.801 99.2472 126.857 99.2833 126.92 99.3012C128.004 99.6721 129.056 100.134 130.063 100.681C130.201 100.903 129.718 102.659 129.633 103.111L128.867 103.264C128.791 103.284 128.725 103.333 128.684 103.4C128.642 103.467 128.628 103.547 128.645 103.624C128.844 104.981 129.296 108.323 129.296 108.323C127.096 106.277 127.111 105.142 126.636 105.096C126.589 105.09 126.541 105.096 126.497 105.114C126.453 105.131 126.414 105.159 126.383 105.196C122.779 109.378 120.755 114.692 120.665 120.212C120.674 120.254 120.696 120.291 120.729 120.318C120.762 120.344 120.803 120.359 120.845 120.359C120.887 120.359 120.928 120.344 120.961 120.318C120.994 120.291 121.017 120.254 121.025 120.212C121.314 114.989 123.252 109.992 126.56 105.939C127.322 107.253 128.323 108.412 129.511 109.358C129.561 109.403 129.625 109.431 129.692 109.438C129.76 109.444 129.827 109.43 129.886 109.396C129.945 109.362 129.991 109.31 130.019 109.249C130.046 109.187 130.054 109.118 130.04 109.051C130.04 109.051 129.488 105.318 129.273 103.801C134.493 102.873 138.977 98.435 140.487 92.7781C140.487 95.9285 140.38 103.739 140.38 103.816C140.38 104.314 140.38 104.79 139.936 105.012C138.678 105.453 137.399 105.83 136.103 106.139C136.05 106.153 136.001 106.181 135.963 106.22C135.924 106.259 135.897 106.308 135.884 106.361C135.87 106.414 135.872 106.47 135.887 106.523C135.903 106.575 135.932 106.623 135.973 106.66C136.333 106.951 138.402 108.645 139.085 109.189C139.085 109.189 138.15 110.975 137.674 111.857C136.897 111.138 136.253 110.287 135.773 109.343C135.742 109.289 135.694 109.247 135.637 109.223C135.58 109.199 135.516 109.195 135.456 109.211C135.396 109.226 135.343 109.261 135.305 109.31C135.267 109.359 135.245 109.419 135.244 109.481C135.459 114.601 137.099 113.934 135.743 115.613C131.067 121.492 130.247 123.393 125.21 124.88C126.222 120.281 129.687 118.419 131.074 115.099C131.841 113.283 131.672 111.267 132.278 109.442C132.7 108.176 133.389 107.016 134.299 106.04C135.209 105.063 136.318 104.295 137.552 103.785C137.596 103.77 137.633 103.738 137.654 103.695C137.675 103.653 137.678 103.604 137.663 103.559C137.648 103.515 137.615 103.478 137.573 103.457C137.53 103.436 137.481 103.433 137.437 103.448C135.83 104.015 134.413 105.017 133.342 106.342C132.272 107.667 131.59 109.263 131.373 110.952C131.044 113.306 131.113 114.463 129.641 116.525C128.016 118.786 125.356 120.787 124.498 125.072C123.165 125.404 121.8 125.594 120.427 125.639C120.266 124.267 119.423 123.462 118.825 123.432C118.273 122.466 112.455 113.612 110.309 111.673C112.683 107.402 113.774 102.537 113.452 97.6609C114.372 99.0176 115.943 101.562 116.219 102.061C113.544 112.378 117.913 113.927 118.979 119.101ZM106.89 119.438C106.89 119.384 106.875 119.331 106.845 119.286C106.816 119.24 106.774 119.204 106.725 119.181C106.676 119.159 106.621 119.151 106.568 119.158C106.514 119.166 106.464 119.188 106.423 119.223C105.443 120.196 104.552 121.256 103.763 122.389C103.312 122.126 102.888 121.818 102.498 121.469C104.351 119.859 106.031 118.061 107.511 116.104C115.652 125.869 115.261 125.586 115.491 125.402C115.509 125.389 115.524 125.374 115.536 125.355C115.548 125.337 115.556 125.316 115.559 125.295C115.563 125.273 115.562 125.251 115.557 125.23C115.552 125.209 115.542 125.189 115.529 125.172C114.993 124.359 109.527 117.506 107.864 115.582C108.654 114.491 109.376 113.352 110.026 112.171C113.092 115.168 117.852 123.056 118.296 123.8C117.873 124.408 117.675 125.146 117.737 125.885C116.768 126.155 115.751 126.2 114.763 126.015C113.59 125.785 109.205 123.631 106.331 123.547C106.515 122.711 106.806 120.159 106.913 119.438H106.89ZM86.8227 120.411H86.953C87.5509 120.274 88.486 120.067 88.7083 120.672C88.8233 121.086 91.1382 143.952 91.1382 144.657C91.1505 144.768 91.1384 144.88 91.1026 144.986C91.0669 145.092 91.0084 145.189 90.9313 145.27C88.9383 144.504 84.0325 124.167 83.8408 122.443C84.6134 121.487 85.6506 120.781 86.8227 120.411ZM5.20248 84.2159C5.20248 82.4605 4.03735 47.6601 4.15233 46.4029C4.35163 44.0344 5.20248 42.9689 7.08048 42.7236C9.06579 42.3403 27.6005 41.8114 29.6241 41.7578C29.6701 42.5243 29.7085 43.0609 29.7238 43.1605C29.8088 43.7636 30.0964 44.3198 30.5394 44.7377C30.9824 45.1556 31.5544 45.4104 32.1614 45.4601C32.1614 45.3835 31.6554 45.4601 47.492 45.5138C47.492 47.9053 47.6376 59.1427 47.6453 59.6716C43.1381 59.8402 38.4929 60.0242 37.6037 60.1085C37.4811 60.1085 37.3738 60.3308 37.4198 60.4381C38.7535 63.7342 44.6941 77.1178 46.3575 80.5519C46.5126 80.9421 46.7792 81.278 47.124 81.5177C47.3387 81.8397 47.5916 82.1999 47.8906 82.5602C45.4607 84.4995 44.5868 86.6458 43.1764 89.7886C36.6839 89.9266 10.3689 90.4708 9.77866 90.4478C8.13829 90.3788 6.98083 89.9036 6.26029 88.9991C5.16415 87.696 5.21014 85.9176 5.20248 84.2159ZM93.8824 53.6007C94.0434 54.1832 94.6489 54.4975 95.5841 54.5205C97.1938 54.4515 97.8837 55.8389 98.175 57.4333C96.608 57.7396 95.0185 57.9165 93.4225 57.9622C93.3763 57.9627 93.3308 57.9739 93.2897 57.9949C93.2486 58.0159 93.2128 58.0462 93.1854 58.0833C93.1579 58.1205 93.1394 58.1635 93.1313 58.209C93.1233 58.2544 93.1258 58.3012 93.1389 58.3455C93.3836 59.2205 93.3859 60.1456 93.1456 61.0219C92.9053 61.8981 92.4313 62.6926 91.7744 63.3203C89.7125 65.3056 86.4087 64.2095 85.9258 68.7856C85.2359 68.1878 82.6834 66.0185 82.1621 65.3822C81.2653 64.3474 80.905 62.6304 81.8249 61.5496C83.7946 61.2277 85.7852 61.0509 87.7808 61.0207C87.8255 61.0207 87.8684 61.0029 87.9001 60.9713C87.9317 60.9397 87.9495 60.8968 87.9495 60.8521C87.9495 60.8073 87.9317 60.7644 87.9001 60.7328C87.8684 60.7012 87.8255 60.6834 87.7808 60.6834C85.4848 60.5206 83.1774 60.6858 80.928 61.174C80.0695 61.4116 79.6479 61.5803 79.2647 60.7754C79.073 60.3691 77.9309 56.8891 77.7316 56.2452C77.379 55.4097 77.5936 55.6626 78.2375 55.264C78.8684 55.7972 79.5765 56.2314 80.3378 56.5518C80.3378 56.6438 80.7364 57.8626 80.7977 58.0849C80.8238 58.2691 80.9159 58.4375 81.0569 58.5588C81.1979 58.6801 81.3783 58.7459 81.5643 58.7441C83.3518 58.9083 85.1527 58.6466 86.8196 57.9804C88.4864 57.3142 89.9717 56.2625 91.1536 54.9114C91.177 54.8793 91.1877 54.8396 91.1837 54.8C91.1796 54.7604 91.161 54.7237 91.1314 54.6971C91.1019 54.6704 91.0635 54.6556 91.0237 54.6555C90.9839 54.6555 90.9455 54.6702 90.9159 54.6968C89.7287 55.8967 88.3024 56.8335 86.7296 57.4463C85.1567 58.059 83.4726 58.3341 81.7865 58.2535C81.25 58.2152 81.319 58.3302 80.8667 56.7205C82.9363 57.303 83.4576 56.5135 82.7217 57.2417C82.6977 57.2703 82.6845 57.3065 82.6842 57.3438C82.6839 57.3812 82.6967 57.4175 82.7202 57.4465C82.7438 57.4755 82.7767 57.4954 82.8133 57.5028C82.85 57.5102 82.888 57.5046 82.921 57.487C85.7092 55.4023 87.7433 52.4669 88.716 49.1241C88.723 49.1025 88.7256 49.0797 88.7236 49.057C88.7216 49.0344 88.715 49.0123 88.7043 48.9923C88.6935 48.9722 88.6789 48.9546 88.6611 48.9403C88.6434 48.9261 88.6229 48.9156 88.601 48.9095C88.2024 48.7715 88.4707 49.5611 86.6004 52.6195C85.8338 49.5534 86.3474 46.311 85.5195 43.2295C85.5084 43.1858 85.4803 43.1483 85.4415 43.1253C85.4027 43.1023 85.3563 43.0957 85.3126 43.1069C85.2689 43.118 85.2314 43.1461 85.2084 43.1849C85.1854 43.2238 85.1788 43.2701 85.1899 43.3138C85.3242 43.9659 85.4113 44.6269 85.4506 45.2915C83.8179 43.6741 80.3685 41.0909 77.6473 41.6811C77.061 41.6992 76.5055 41.9474 76.1009 42.372C75.6963 42.7967 75.4753 43.3636 75.4857 43.95C74.8264 43.0609 75.2864 41.7041 75.8843 40.9529C77.4633 38.8909 80.2688 37.8868 83.0667 37.1203C85.5425 36.461 88.854 36.553 90.732 38.7913C91.5466 39.9083 92.1351 41.1738 92.4643 42.5166C93.4434 45.5426 94.1263 48.6566 94.5033 51.8147C94.5325 51.942 94.5265 52.0749 94.486 52.1991C94.4455 52.3233 94.372 52.4342 94.2733 52.5199C94.1203 52.6509 94.0038 52.8193 93.9353 53.0087C93.8668 53.1981 93.8486 53.4021 93.8824 53.6007ZM46.9171 80.3679C46.1965 78.8349 39.0755 63.0443 37.941 60.4381C40.4782 60.4381 69.1081 59.388 69.6064 59.3727C70.5799 62.5001 76.2522 81.3874 76.2522 81.5484C76.2522 81.5484 69.4761 81.717 65.8197 81.8627C59.6491 78.7505 53.9385 79.0878 49.7839 81.2878C47.4383 81.1881 47.331 81.2341 46.9171 80.3679ZM76.0452 48.5722C75.9379 46.2726 76.0452 44.6706 76.4055 44.5096C77.7239 43.9117 80.1845 43.7431 82.921 44.6093C83.2659 44.7242 84.3698 45.2991 85.4812 45.7667C85.6039 48.2196 85.4812 50.8182 86.2478 53.1944C85.5702 54.3826 84.6998 55.4498 83.6722 56.3525C79.0347 56.9657 76.2522 53.2557 76.0299 48.5722H76.0452ZM83.082 94.4108C82.898 94.7634 86.0178 97.1089 86.3551 97.3619C87.4589 98.4044 86.1098 98.9716 84.9906 97.9675C78.8584 92.4561 73.6307 86.1399 66.8162 82.3686C70.7868 82.2383 75.7003 82.0926 76.5435 82.085C77.3943 82.9051 87.2749 92.1572 89.8275 94.3494C82.6987 94.4031 83.151 94.2881 83.0667 94.4108H83.082ZM90.6093 94.3035C90.5327 94.2345 77.5783 82.5295 77.08 81.947C76.7888 81.4564 71.4154 63.2206 70.1813 59.5489C70.9384 60.0653 71.5 60.8212 71.7757 61.6952C72.2356 63.006 77.4556 80.4829 77.4786 80.5672C77.5413 80.9917 77.731 81.3872 78.0229 81.7017C80.0389 83.641 88.5933 91.3983 91.3758 93.6979C91.2149 93.8972 91.0539 94.0965 90.9006 94.3035H90.6093ZM90.0497 86.9371C88.716 86.8298 88.2944 86.6765 87.9648 87.0827C87.8575 87.2514 87.5509 87.627 87.1599 87.5427C87.0921 87.5268 87.0283 87.4972 86.9725 87.4556C86.9167 87.414 86.8701 87.3614 86.8355 87.301C86.801 87.2405 86.7793 87.1736 86.7718 87.1044C86.7643 87.0352 86.7712 86.9652 86.792 86.8988C87.1676 86.5462 87.5585 86.2395 87.9111 85.8639C87.93 85.8375 87.9394 85.8054 87.938 85.7729C87.9365 85.7405 87.9242 85.7094 87.903 85.6847C87.8819 85.66 87.8531 85.6431 87.8212 85.6367C87.7893 85.6303 87.7562 85.6347 87.7272 85.6493C87.3362 85.9023 86.9606 86.3085 86.516 86.5768C86.4793 86.5773 86.4432 86.5858 86.4101 86.6017C86.377 86.6176 86.3478 86.6405 86.3244 86.6688C86.2326 86.7061 86.1334 86.7216 86.0346 86.7143C85.9357 86.7069 85.8399 86.6768 85.7546 86.6264C85.6693 86.5759 85.5968 86.5065 85.5427 86.4234C85.4887 86.3404 85.4545 86.246 85.4429 86.1476C85.4429 85.5343 86.1021 85.1281 86.4854 84.6758C86.6387 84.5225 86.4087 84.2926 86.2478 84.4382C85.8371 84.7849 85.4551 85.1643 85.1056 85.5727C84.664 85.7131 84.2132 85.8232 83.7565 85.9023C83.5496 85.9023 83.7565 86.0326 82.852 85.2584C83.7951 84.3738 84.8219 83.5831 85.9181 82.8975C87.7808 81.671 88.1258 83.7943 89.8045 84.0396C89.8029 85.0107 89.8849 85.9801 90.0497 86.9371ZM91.7744 93.2533L84.0555 86.3545C84.3354 86.2993 84.6118 86.2276 84.8833 86.1399C84.8771 86.3063 84.9097 86.4719 84.9786 86.6236C85.0475 86.7752 85.1507 86.9088 85.2801 87.0136C85.4095 87.1185 85.5615 87.1918 85.7242 87.2277C85.8868 87.2637 86.0556 87.2613 86.2171 87.2207C86.2478 87.3833 86.3164 87.5363 86.4174 87.6673C86.5185 87.7983 86.649 87.9036 86.7985 87.9746C86.9479 88.0456 87.112 88.0803 87.2774 88.0758C87.4428 88.0713 87.6048 88.0279 87.7502 87.9489C88.808 87.466 87.7502 87.282 89.4595 87.4353C89.6818 87.4353 89.9194 87.4813 90.1494 87.489C90.2184 87.8493 90.2874 88.1789 90.364 88.4931C90.3824 88.5558 90.4209 88.6108 90.4735 88.6495C90.5261 88.6883 90.59 88.7088 90.6553 88.7078C104.361 88.4165 97.6307 86.5232 91.7591 93.2533H91.7744ZM73.3777 64.7077C72.5115 61.8026 72.0593 59.457 70.3116 58.8591C70.3116 58.9511 70.9631 58.7594 48.2738 59.6256C48.2738 55.8926 48.1129 46.8629 48.0899 45.4908H75.57C75.3554 48.8099 75.57 52.3896 77.8696 54.8578C77.5936 54.9651 77.103 55.1951 76.9881 55.3867C77.2708 56.6256 77.6501 57.8404 78.1225 59.02C76.0659 60.4714 74.4206 62.431 73.347 64.7077H73.3777ZM70.2273 41.0142C70.2273 39.9411 69.982 34.1691 69.9283 33.1113H71.883C71.883 34.1998 72.0286 39.9488 72.0746 41.0066C71.4614 40.9912 70.8405 40.9989 70.2273 41.0142ZM58.9976 41.2442C59.0053 39.1592 58.737 21.529 58.6986 19.2294H60.6533C60.6533 25.0551 60.8219 39.6268 60.8526 41.2135L58.9976 41.2442ZM46.9017 22.1882H48.8641C48.8641 27.2244 49.025 39.9411 49.0634 41.4512H47.2084C47.216 39.5655 46.9477 24.2885 46.9017 22.1882ZM30.2604 42.8232C30.153 42.1717 29.2639 21.759 28.9036 13.9404C28.8193 11.5335 29.4555 8.57466 31.0729 7.20257C31.0729 12.5683 31.7628 42.1794 31.9161 44.8622C31.4649 44.732 31.0645 44.4669 30.7685 44.1024C30.4725 43.7379 30.2952 43.2915 30.2604 42.8232ZM100.59 36.4534C100.526 35.953 100.646 35.4467 100.927 35.0276C101.527 34.5552 102.171 34.1419 102.851 33.7935C102.084 35.1733 102.284 34.79 102.69 59.0124C102.058 58.5305 101.4 58.0827 100.72 57.671C100.643 53.8076 100.605 39.7648 100.613 36.4534H100.59ZM107.289 44.9695C107.645 44.464 108.119 44.0521 108.668 43.7691C109.218 43.4861 109.829 43.3404 110.447 43.3445C113.567 43.3445 114.701 47.0545 115.315 50.0746C115.851 52.4432 115.889 55.2334 117.614 57.165C125.632 64.4317 126.238 54.2905 131.113 54.6815C132.646 54.8578 133.665 56.2605 134.761 57.2724C135.23 57.7987 135.887 58.1188 136.591 58.1633C137.294 58.2078 137.986 57.973 138.517 57.51V68.4024C136.632 68.4024 112.685 68.2261 110.056 68.2567C109.416 66.917 108.662 65.6348 107.803 64.4241C107.895 63.4966 107.327 45.7974 107.312 44.9695H107.289ZM110.355 68.778C113.881 68.8316 136.256 68.893 138.579 68.893C138.582 69.185 138.6 69.4766 138.632 69.7668C138.638 69.8285 138.666 69.886 138.711 69.9284C138.757 69.9708 138.816 69.9951 138.878 69.9968C139.33 69.9968 139.123 70.6943 139.046 49.906C139.046 49.8552 139.026 49.8064 138.99 49.7705C138.954 49.7345 138.906 49.7144 138.855 49.7144C138.804 49.7144 138.755 49.7345 138.719 49.7705C138.683 49.8064 138.663 49.8552 138.663 49.906C138.663 51.2704 138.579 55.7776 138.571 56.6668C138.395 56.9439 138.156 57.1753 137.874 57.3422C137.591 57.509 137.273 57.6066 136.945 57.6268C136.618 57.647 136.29 57.5892 135.989 57.4584C135.688 57.3275 135.422 57.1271 135.214 56.8738C132.998 54.5742 130.806 52.6578 127.602 55.6166C124.981 58.3225 123.539 60.6068 119.937 58.2688C118.478 57.4916 117.379 56.1777 116.871 54.6048C115.66 50.2586 115.997 43.5515 110.876 42.6623C110.192 42.5923 109.5 42.6913 108.863 42.9505C108.226 43.2098 107.661 43.6214 107.22 44.1493C107.22 42.9842 107.136 41.8498 107.09 40.6693C107.09 40.6205 107.07 40.5737 107.036 40.5392C107.001 40.5047 106.955 40.4853 106.906 40.4853C106.857 40.4853 106.81 40.5047 106.776 40.5392C106.741 40.5737 106.722 40.6205 106.722 40.6693C106.722 41.9417 107.12 59.7099 107.243 63.6116C106.062 62.0657 104.703 60.6636 103.196 59.434C103.196 56.5135 102.935 37.5495 102.904 36.3767C102.858 34.2458 103.709 33.0117 105.672 32.4981C107.281 32.0535 136.226 31.6089 138.977 31.9845C140.802 32.2145 141.844 34.0005 142.105 35.5489C142.427 37.4729 142.519 69.2762 142.526 69.6978C142.588 73.4538 142.143 77.7387 138.234 78.2676C137.352 78.3903 115.545 78.4439 112.379 78.4133C112.477 75.0882 111.789 71.787 110.37 68.778H110.355ZM87.9111 9.11123C88.831 10.7209 88.3097 10.2764 88.9613 36.7523C85.7878 35.3189 81.296 36.6373 78.2298 38.2854V15.5731C78.2298 15.3968 78.6284 15.4504 75.9303 15.4504C75.7616 15.4504 75.7769 13.8714 76.3442 39.5578C75.8842 39.973 75.4843 40.4503 75.1561 40.9759H72.5805C72.5805 39.9794 72.2892 32.912 72.2586 32.8507C72.2497 32.8108 72.2273 32.7753 72.1951 32.7501C72.163 32.725 72.1231 32.7117 72.0823 32.7127C71.2541 32.6849 70.4249 32.7028 69.5987 32.7664C69.5742 32.7831 69.5548 32.8062 69.5426 32.8333C69.5304 32.8604 69.526 32.8902 69.5297 32.9197C69.5297 33.6862 69.6677 39.9104 69.7214 41.0142L66.8315 41.0756C66.9772 27.9832 67.0308 28.6731 66.8315 28.6578C64.7542 28.7421 64.7082 28.7038 64.7082 28.8571V41.1216L61.3355 41.1905C61.3355 39.4812 61.0749 20.1646 61.0212 19.0455C61.0235 18.9951 61.0066 18.9457 60.9738 18.9073C60.9411 18.8688 60.8951 18.8443 60.8449 18.8385C60.8449 18.8385 58.4457 18.8385 58.369 18.9152C58.1467 19.0915 58.4917 40.378 58.4917 41.2519L54.8507 41.3208V29.8765C54.8236 29.8659 54.7934 29.8659 54.7663 29.8765C52.6507 29.8765 52.6737 29.8765 52.6737 30.0452V41.3668L49.5616 41.4588C49.347 21.667 49.1707 22.0273 49.2473 22.0273C49.2476 21.9782 49.2298 21.9307 49.1973 21.8939C49.1648 21.8571 49.1198 21.8336 49.071 21.828C49.071 21.828 46.6871 21.828 46.6105 21.8893C46.3498 22.0503 46.7178 40.1557 46.7178 41.5201L42.5019 41.5968C42.5249 11.7251 42.6092 13.0972 42.4099 13.0972L40.5319 13.1662C40.4016 13.1662 40.4476 11.3342 40.4476 41.6275C37.2894 41.6888 37.3814 41.6275 37.3354 41.7501C37.3207 41.774 37.3125 41.8013 37.3116 41.8294C37.3107 41.8575 37.3171 41.8853 37.3303 41.9101C37.3435 41.9349 37.3629 41.9558 37.3867 41.9708C37.4104 41.9857 37.4377 41.9942 37.4657 41.9954C42.1186 41.9954 70.2963 41.7118 74.8878 41.5738C74.4279 42.7466 74.5122 44.042 75.5776 44.7242V44.8929C71.1471 45.0232 33.2345 44.8929 32.5523 44.8929C32.5523 43.8887 31.6938 8.81995 31.6861 6.85763C36.9982 6.85763 83.8102 6.92662 85.029 7.12592C85.6264 7.22269 86.1949 7.451 86.6934 7.79434C87.1918 8.13769 87.6078 8.58749 87.9111 9.11123ZM4.35929 43.5285C3.47778 44.8009 3.43179 46.4566 3.43179 48.0587C3.43179 48.4113 4.50493 86.1399 4.6659 87.0597C4.75758 87.7273 4.99107 88.3675 5.35069 88.9373C5.71031 89.5072 6.18773 89.9935 6.75087 90.3635C5.84986 90.3181 4.96903 90.0803 4.16766 89.6659C2.46596 88.7308 1.82208 86.8068 1.59212 85.7413C1.18586 83.825 0.649284 50.9101 0.741268 49.2084C0.687611 46.3876 1.64577 44.8622 4.34396 43.5285H4.35929ZM119.339 130.215C122.407 130.001 125.413 129.244 128.215 127.977C130.208 127.057 132.692 125.601 133.719 124.443C133.88 128.061 133.144 130.399 129.426 132.109C124.505 134.408 112.831 137.229 107.787 133.864C107.335 133.427 106.254 130.108 105.825 128.575C108.025 130.039 114.433 130.606 119.324 130.215H119.339ZM50.0139 140.257C49.37 140.203 49.0634 140.847 48.8487 141.315C47.055 145.147 47.078 145.393 45.2537 145.515C44.6788 145.554 39.2671 145.998 38.8685 145.998C37.4734 146.098 36.6992 145.14 37.688 143.967C38.2517 143.542 38.8774 143.206 39.543 142.97C41.674 141.982 45.0467 139.368 45.7903 136.133C46.5597 137.037 47.6093 137.657 48.7721 137.896C50.2117 138.05 51.6637 137.753 52.9267 137.045C52.6354 138.701 51.9608 143.86 51.8765 145.477C51.4284 145.43 50.9779 145.41 50.5274 145.416C50.5198 144.979 50.3741 140.288 49.9985 140.257H50.0139ZM52.8347 136.309C51.8386 137.014 50.6435 137.382 49.4236 137.359C48.7783 137.311 48.1499 137.13 47.5776 136.828C47.0053 136.526 46.5012 136.109 46.0969 135.604C46.0969 135.366 46.0126 132.799 46.0356 131.419C48.5192 131.615 51.0122 131.663 53.5016 131.564C53.3789 132.239 52.988 134.976 52.8194 136.309H52.8347Z" fill="black"/>
<path d="M129.143 37.3655C129.186 37.3567 129.225 37.3332 129.253 37.299C129.281 37.2648 129.296 37.2219 129.296 37.1777C129.296 37.1335 129.281 37.0907 129.253 37.0564C129.225 37.0222 129.186 36.9987 129.143 36.9899H127.855C118.22 37.2889 118.534 37.2812 118.542 37.5495C118.549 37.8178 118.25 37.8791 129.143 37.3655ZM129.465 39.1592C127.748 39.1592 121.033 39.2512 119.308 39.3892C119.248 39.3996 119.193 39.4312 119.153 39.4781C119.114 39.5251 119.092 39.5845 119.092 39.6459C119.092 39.7073 119.114 39.7668 119.153 39.8138C119.193 39.8607 119.248 39.8922 119.308 39.9027C121.063 39.9027 127.74 39.5578 129.472 39.4888C129.51 39.4798 129.543 39.4582 129.567 39.4277C129.59 39.3971 129.602 39.3595 129.601 39.3209C129.601 39.2824 129.587 39.2453 129.562 39.2159C129.537 39.1865 129.502 39.1664 129.465 39.1592ZM127.778 41.98C126.582 42.026 122.742 41.98 119.078 41.98C118.997 41.98 118.919 42.0123 118.861 42.0698C118.804 42.1273 118.771 42.2053 118.771 42.2866C118.771 42.368 118.804 42.446 118.861 42.5035C118.919 42.561 118.997 42.5933 119.078 42.5933C119.845 42.6469 127.035 42.348 127.786 42.3173C127.831 42.3163 127.873 42.2975 127.904 42.2652C127.935 42.2329 127.952 42.1896 127.951 42.1448C127.95 42.1001 127.931 42.0576 127.899 42.0267C127.866 41.9958 127.823 41.979 127.778 41.98ZM103.081 3.6765C102.182 3.89709 101.361 4.35721 100.703 5.00785C100.046 5.65848 99.5775 6.47526 99.3476 7.37117C98.4968 10.6289 101.448 14.178 104.844 13.6107C105.586 13.454 106.288 13.1475 106.907 12.7099C107.527 12.2723 108.051 11.7129 108.446 11.0659C108.833 10.3517 109.053 9.55918 109.088 8.7479C109.124 7.93662 108.975 7.12778 108.653 6.38235C108.193 5.06392 106.829 2.95596 103.081 3.6765ZM104.936 10.1383C103.456 11.1578 101.724 9.30283 102.406 8.1607C103.633 6.12173 105.809 7.66245 105.863 8.42899C105.862 8.76932 105.776 9.10403 105.613 9.4026C105.45 9.70117 105.214 9.95411 104.928 10.1383H104.936ZM104.844 6.65063C104.326 6.48785 103.77 6.50112 103.261 6.68835C102.752 6.87559 102.319 7.22623 102.03 7.68545C101.795 8.09888 101.706 8.57996 101.778 9.05038C101.85 9.5208 102.08 9.95289 102.429 10.2763C102.707 10.5433 103.049 10.7345 103.422 10.8315C103.796 10.9286 104.187 10.9283 104.56 10.8306C104.933 10.7329 105.275 10.5411 105.553 10.2737C105.831 10.0062 106.035 9.67191 106.147 9.30283C106.801 9.73186 107.533 10.0287 108.301 10.1767C108.029 10.8388 107.613 11.4318 107.082 11.912C106.552 12.3921 105.92 12.7474 105.235 12.9515C102.168 13.8407 99.4396 11.0582 99.7845 8.05339C99.8855 7.35357 100.144 6.68585 100.541 6.10062C100.938 5.51539 101.462 5.02795 102.075 4.67508C102.688 4.32221 103.373 4.11314 104.078 4.06364C104.783 4.01415 105.491 4.12553 106.147 4.38937C105.54 5.03081 105.091 5.80512 104.836 6.65063H104.844Z" fill="black"/>
<path d="M96.1818 16.8378C98.0522 16.7382 132.301 16.4776 134.8 15.734C136.724 15.3814 137.383 14.4923 137.283 12.5529C137.283 11.9091 137.391 4.52736 137.191 3.2166C137.015 1.59922 136.149 0.832687 134.324 0.733038C132.791 0.587397 97.2627 1.1393 95.584 1.49957C94.2195 1.76785 93.2844 2.2661 93.1004 3.79916C93.0161 4.26674 93.384 12.9209 93.43 13.7641C93.5373 15.5884 94.4495 16.6692 96.1818 16.8378ZM99.1713 16.3166C98.72 16.2622 98.2864 16.1081 97.9019 15.8655C97.5174 15.6229 97.1917 15.2978 96.9484 14.9139C96.408 13.9833 96.1299 12.9237 96.1435 11.8477C96.0592 10.5446 95.8139 5.71549 95.7832 4.55036C95.7832 4.07511 95.7833 2.49606 96.9484 1.92883C98.7497 1.74486 132.308 1.24661 133.742 1.2926C134.508 1.2926 135.543 1.35393 136.126 1.94416C136.984 2.81034 136.708 4.24375 136.762 12.484C136.931 14.5842 136.133 15.0442 134.171 15.3278C132.408 15.5961 99.4779 16.3166 99.1866 16.3166H99.1713ZM95.262 3.57687C95.1624 4.26674 95.5686 10.8589 95.607 11.7328C95.6989 13.902 96.3198 15.4428 97.5463 16.3319H96.7797C94.9094 16.3319 94.0586 15.4351 93.9742 13.5264C93.9282 12.438 93.5756 4.32807 93.6523 3.86815C93.8133 2.47306 94.7561 2.16645 96.0055 2.01314C95.6182 2.45396 95.3654 2.99668 95.2773 3.57687H95.262Z" fill="black"/>
<path d="M113.352 5.56215C113.636 5.56215 122.436 5.33985 122.359 5.33985C122.399 5.33147 122.434 5.30977 122.46 5.27837C122.485 5.24697 122.499 5.20779 122.499 5.16738C122.499 5.12697 122.485 5.08779 122.46 5.0564C122.434 5.025 122.399 5.00329 122.359 4.99491C121.708 4.99491 114.111 4.8646 113.337 4.99491C113.278 5.01631 113.227 5.05575 113.192 5.10765C113.156 5.15956 113.138 5.22128 113.14 5.28406C113.142 5.34684 113.163 5.4075 113.201 5.45741C113.239 5.50733 113.292 5.54398 113.352 5.56215ZM125.057 7.96905C123.953 8.07637 112.869 7.70077 112.793 8.26033C112.793 8.36765 112.892 8.45197 112.969 8.4673C113.935 8.58228 125.019 8.34465 125.096 8.33699C125.12 8.33447 125.143 8.32722 125.165 8.31565C125.186 8.30408 125.205 8.28842 125.22 8.26955C125.235 8.25069 125.247 8.229 125.254 8.20572C125.261 8.18243 125.263 8.15802 125.26 8.13386C125.258 8.1097 125.251 8.08627 125.239 8.06491C125.228 8.04356 125.212 8.02469 125.193 8.00938C125.174 7.99408 125.152 7.98264 125.129 7.97572C125.106 7.9688 125.081 7.96654 125.057 7.96905ZM124.835 10.9125C122.942 10.9125 113.398 10.8665 112.9 10.9509C112.851 10.9638 112.808 10.9927 112.777 11.0329C112.746 11.0731 112.729 11.1224 112.729 11.1732C112.729 11.2239 112.746 11.2732 112.777 11.3134C112.808 11.3536 112.851 11.3825 112.9 11.3954C113.429 11.4798 124.061 11.2345 124.843 11.2115C124.876 11.2029 124.906 11.1832 124.927 11.1555C124.948 11.1277 124.959 11.0937 124.958 11.0589C124.957 11.0242 124.945 10.9907 124.922 10.9641C124.9 10.9375 124.869 10.9193 124.835 10.9125ZM16.4629 60.0165C21.6523 59.5949 24.4042 52.9107 20.3722 49.2007C20.2266 49.0704 20.5025 48.7791 16.2559 54.9191C11.1202 50.0516 11.3961 50.2355 11.2812 50.3199C7.21854 54.3288 11.2428 60.4457 16.4629 60.0165Z" fill="black"/>
<path d="M15.8956 52.4049C16.0412 52.5658 15.9722 52.5888 19.4446 46.7325C19.4529 46.7195 19.4585 46.705 19.4611 46.6898C19.4637 46.6745 19.4632 46.6589 19.4596 46.6439C19.456 46.6289 19.4495 46.6147 19.4403 46.6023C19.4311 46.5899 19.4196 46.5794 19.4063 46.5716C18.1818 45.9272 16.7788 45.7048 15.4151 45.939C14.0513 46.1733 12.8029 46.851 11.8636 47.867C11.7716 47.982 11.6337 47.7597 15.8956 52.4049ZM7.88532 80.8048C8.08192 80.8036 8.27375 80.7441 8.43667 80.6341C8.59959 80.524 8.7263 80.3682 8.80087 80.1863C8.87544 80.0044 8.89453 79.8045 8.85574 79.6117C8.81695 79.419 8.722 79.242 8.58286 79.1031C8.96612 78.4822 11.4497 74.3966 12.1779 73.2928C12.3666 73.3801 12.5772 73.4085 12.7823 73.3743C12.9874 73.3401 13.1775 73.245 13.3277 73.1012L16.8691 75.83C16.8113 76.0009 16.801 76.1842 16.8393 76.3604C16.8775 76.5367 16.9629 76.6992 17.0862 76.8308C17.2096 76.9623 17.3663 77.0579 17.5398 77.1074C17.7132 77.1569 17.8968 77.1583 18.071 77.1117C18.2452 77.065 18.4034 76.9719 18.5289 76.8424C18.6544 76.7128 18.7423 76.5516 18.7834 76.376C18.8245 76.2004 18.8171 76.017 18.7621 75.8452C18.7071 75.6735 18.6065 75.5199 18.4711 75.4008L19.7282 73.7451C19.9532 73.848 20.2083 73.8643 20.4445 73.7907C20.6808 73.7172 20.8815 73.559 21.0083 73.3465L24.6723 74.5883C24.6525 74.7531 24.6743 74.9204 24.7355 75.0747C24.7968 75.229 24.8956 75.3656 25.0231 75.4721C25.1506 75.5785 25.3027 75.6513 25.4655 75.6841C25.6283 75.7168 25.7967 75.7083 25.9554 75.6593C26.114 75.6104 26.258 75.5226 26.3741 75.4039C26.4902 75.2851 26.5748 75.1393 26.6202 74.9796C26.6656 74.8198 26.6704 74.6513 26.6341 74.4892C26.5978 74.3272 26.5216 74.1768 26.4124 74.0517C26.719 72.9556 29.3712 64.8533 29.6395 64.0868C29.8969 64.0644 30.1357 63.9436 30.3063 63.7495C31.0345 64.3244 33.2192 65.9571 33.9244 66.4324C33.8841 66.591 33.8835 66.7572 33.9227 66.9161C33.9618 67.0751 34.0396 67.2219 34.149 67.3437C34.2584 67.4654 34.3961 67.5584 34.5499 67.6143C34.7038 67.6702 34.8691 67.6873 35.0311 67.6641C35.1932 67.641 35.347 67.5783 35.4791 67.4815C35.6111 67.3848 35.7173 67.257 35.7883 67.1095C35.8592 66.962 35.8927 66.7992 35.8858 66.6357C35.8789 66.4721 35.8318 66.3128 35.7487 66.1718C37.7877 62.9217 37.8797 62.9753 37.665 62.8297C37.6247 62.8046 37.5764 62.7955 37.5297 62.804C37.483 62.8125 37.441 62.838 37.4121 62.8757C37.0518 63.3969 35.3501 65.7885 35.3501 65.7885C35.1688 65.6992 34.9652 65.6654 34.7647 65.6913C34.5643 65.7172 34.376 65.8017 34.2233 65.9341C33.5104 65.4359 31.2492 63.8185 30.5286 63.2589C30.5594 63.0821 30.5418 62.9001 30.4777 62.7324C30.4137 62.5647 30.3054 62.4174 30.1645 62.3061C30.0236 62.1948 29.8553 62.1236 29.6773 62.1002C29.4993 62.0767 29.3182 62.1017 29.1533 62.1726C28.9883 62.2436 28.8456 62.3577 28.7402 62.5031C28.6348 62.6485 28.5706 62.8196 28.5545 62.9984C28.5383 63.1773 28.5708 63.3571 28.6484 63.519C28.7261 63.6809 28.846 63.8188 28.9956 63.9182C28.3364 65.7118 26.42 71.9207 25.9294 73.7298C25.7452 73.6822 25.5514 73.6872 25.3699 73.7441C25.1884 73.801 25.0264 73.9075 24.9023 74.0517C24.1358 73.7911 21.8362 73.0935 21.1386 72.8712C21.1386 72.609 21.0345 72.3575 20.849 72.172C20.6636 71.9866 20.4121 71.8824 20.1498 71.8824C19.8876 71.8824 19.636 71.9866 19.4506 72.172C19.2652 72.3575 19.161 72.609 19.161 72.8712C19.1626 73.0902 19.2353 73.3026 19.3679 73.4768L17.9959 75.1862C17.8644 75.1574 17.7285 75.1561 17.5965 75.1825C17.4646 75.2089 17.3396 75.2623 17.2293 75.3395L13.573 72.5723C13.6129 72.335 13.5649 72.0913 13.438 71.8869C13.3112 71.6824 13.1141 71.5313 12.8838 71.4617C12.6534 71.3921 12.4056 71.4089 12.1868 71.509C11.968 71.609 11.7931 71.7854 11.695 72.0051C11.6187 72.163 11.5877 72.339 11.6053 72.5135C11.6229 72.6881 11.6884 72.8543 11.7946 72.9939C11.0741 74.0747 8.46021 78.2523 8.08461 78.8578C7.94704 78.8233 7.80363 78.8187 7.66414 78.8445C7.52465 78.8703 7.39233 78.9257 7.27617 79.0072C7.16002 79.0886 7.06274 79.194 6.99094 79.3164C6.91914 79.4387 6.8745 79.5751 6.86006 79.7162C6.84561 79.8573 6.8617 79.9999 6.90722 80.1342C6.95275 80.2686 7.02664 80.3915 7.1239 80.4948C7.22115 80.5981 7.33948 80.6792 7.47086 80.7327C7.60224 80.7862 7.74359 80.8108 7.88532 80.8048ZM21.2229 83.5184C21.166 83.5184 21.1114 83.541 21.0712 83.5812C21.0309 83.6215 21.0083 83.6761 21.0083 83.733C21.0083 83.7899 21.0309 83.8445 21.0712 83.8847C21.1114 83.925 21.166 83.9476 21.2229 83.9476C22.5644 83.9476 38.3089 83.3344 38.8532 83.3267C38.8889 83.3188 38.9209 83.2989 38.9438 83.2703C38.9667 83.2417 38.9792 83.2062 38.9792 83.1696C38.9792 83.133 38.9667 83.0974 38.9438 83.0688C38.9209 83.0403 38.8889 83.0204 38.8532 83.0124C36.7145 83.0201 22.595 83.365 21.2229 83.5184ZM27.9608 78.0377C28.0095 78.0377 28.0563 78.0183 28.0908 77.9838C28.1253 77.9493 28.1447 77.9025 28.1447 77.8537C28.1447 77.8049 28.1253 77.7581 28.0908 77.7236C28.0563 77.6891 28.0095 77.6697 27.9608 77.6697C27.3552 77.6697 25.1629 77.5394 24.6493 77.5624C24.5599 77.5624 24.4741 77.5979 24.4109 77.6612C24.3476 77.7244 24.3121 77.8102 24.3121 77.8997C24.3121 77.9891 24.3476 78.0749 24.4109 78.1382C24.4741 78.2014 24.5599 78.237 24.6493 78.237C25.1553 78.2983 27.3245 78.0913 27.9608 78.0377ZM19.7665 79.0188H16.4628C16.3914 79.0222 16.3221 79.0447 16.2624 79.084C16.2026 79.1233 16.1546 79.1779 16.1232 79.2422C16.0918 79.3065 16.0784 79.378 16.0842 79.4493C16.09 79.5206 16.1148 79.589 16.1562 79.6474C16.3631 79.954 16.5241 79.7164 19.7819 79.4404C19.8223 79.4211 19.8562 79.3903 19.8794 79.352C19.9026 79.3137 19.9141 79.2694 19.9125 79.2246C19.9109 79.1798 19.8962 79.1365 19.8703 79.0999C19.8443 79.0633 19.8083 79.0352 19.7665 79.0188ZM6.69719 83.1121C6.85817 83.1121 9.18842 82.8591 9.70199 82.8361C9.75892 82.8361 9.81351 82.8135 9.85376 82.7733C9.89401 82.733 9.91662 82.6784 9.91662 82.6215C9.91662 82.5646 9.89401 82.51 9.85376 82.4697C9.81351 82.4295 9.75892 82.4069 9.70199 82.4069C9.40305 82.4069 6.81217 82.5142 6.63587 82.5985C6.58907 82.6267 6.5514 82.6678 6.52739 82.7168C6.50339 82.7659 6.49406 82.8209 6.50054 82.8751C6.50701 82.9294 6.52902 82.9806 6.5639 83.0226C6.59879 83.0647 6.64508 83.0957 6.69719 83.1121Z" fill="black"/>
<path d="M33.7479 69.8204H33.8706C37.1283 69.5291 37.0133 69.7514 37.1513 69.5981C37.1768 69.5681 37.1935 69.5316 37.1996 69.4926C37.2057 69.4537 37.201 69.4139 37.1859 69.3775C37.1709 69.341 37.1461 69.3095 37.1143 69.2862C37.0825 69.2629 37.0449 69.2488 37.0057 69.2455C35.8635 69.2455 34.7904 69.1459 33.7632 69.1919C33.3263 69.1995 33.3647 69.8204 33.7479 69.8204ZM16.6083 63.1286C16.5249 63.1286 16.445 63.1617 16.3861 63.2207C16.3271 63.2796 16.294 63.3595 16.294 63.4429C16.294 63.5262 16.3271 63.6062 16.3861 63.6651C16.445 63.7241 16.5249 63.7572 16.6083 63.7572C17.7044 63.7572 21.974 63.3662 23.0088 63.2589C23.0578 63.2495 23.1021 63.2233 23.1339 63.1849C23.1657 63.1464 23.1831 63.098 23.1831 63.0481C23.1831 62.9982 23.1657 62.9498 23.1339 62.9114C23.1021 62.8729 23.0578 62.8467 23.0088 62.8373C21.9433 62.9216 17.6661 63.0366 16.6083 63.1286ZM16.0871 64.9223C16.0254 64.9376 15.9714 64.9749 15.9353 65.0271C15.8992 65.0794 15.8835 65.1431 15.891 65.2061C15.8985 65.2692 15.9288 65.3274 15.9762 65.3697C16.0236 65.412 16.0848 65.4355 16.1484 65.4359C17.3595 65.4359 22.112 65.0066 23.3078 64.9989C23.3606 64.9989 23.4113 64.9779 23.4487 64.9406C23.4861 64.9032 23.5071 64.8525 23.5071 64.7996C23.5071 64.7468 23.4861 64.6961 23.4487 64.6587C23.4113 64.6213 23.3606 64.6003 23.3078 64.6003C20.8964 64.5473 18.4841 64.6548 16.0871 64.9223ZM22.6945 66.1487C20.6885 66.1198 18.6824 66.1992 16.6849 66.3864C16.317 66.4324 16.3017 66.9919 16.6849 66.9919C17.3672 66.9919 21.0925 66.6087 22.7022 66.5473C22.7284 66.5468 22.7542 66.5412 22.7782 66.5307C22.8022 66.5202 22.8239 66.5051 22.842 66.4863C22.8602 66.4674 22.8744 66.4451 22.884 66.4208C22.8935 66.3964 22.8982 66.3704 22.8977 66.3442C22.8972 66.318 22.8915 66.2922 22.881 66.2682C22.8706 66.2442 22.8555 66.2226 22.8366 66.2044C22.8177 66.1862 22.7955 66.172 22.7711 66.1624C22.7467 66.1529 22.7207 66.1482 22.6945 66.1487ZM25.2164 49.6377C25.592 49.6377 29.417 49.2391 30.1682 49.1854C30.2211 49.1854 30.2718 49.1644 30.3091 49.127C30.3465 49.0897 30.3675 49.039 30.3675 48.9861C30.3675 48.9333 30.3465 48.8826 30.3091 48.8452C30.2718 48.8078 30.2211 48.7868 30.1682 48.7868C29.7926 48.7868 25.6917 48.9095 25.2394 48.9401C24.7872 48.9708 24.7872 49.6377 25.2164 49.6377ZM26.006 51.1861C27.2094 51.1861 31.9006 50.7415 33.0887 50.6648C33.132 50.656 33.171 50.6325 33.1989 50.5983C33.2269 50.5641 33.2422 50.5212 33.2422 50.477C33.2422 50.4328 33.2269 50.39 33.1989 50.3557C33.171 50.3215 33.132 50.298 33.0887 50.2892C31.8929 50.3429 27.1711 50.3659 25.9983 50.4885C25.9148 50.5018 25.8389 50.5447 25.7843 50.6093C25.7298 50.674 25.7003 50.756 25.7012 50.8406C25.7022 50.9251 25.7335 51.0066 25.7894 51.07C25.8453 51.1334 25.9222 51.1746 26.006 51.1861Z" fill="black"/>
</svg>
